<svg xmlns="http://www.w3.org/2000/svg" xml:space="preserve" width="660" height="520" x="0" y="0" style="enable-background:new 0 0 660 520" version="1.1"><style>.st1{fill:#060606}.st2{fill:#fff}.st8{fill:#2b67f0}</style><path d="M73.4 455.4H59.2c-1.3-3.9-4.8-6.5-9.8-6.5-7.7 0-12.4 6-12.4 14.9 0 8.4 4.7 15 12.8 15 4.5.2 8.6-2.7 10.1-7h14.5C71.5 482.3 63.8 491 49.6 491c-15 0-27.1-10.7-27.1-27.3 0-14.8 10.3-26.9 27-26.9 14.5.1 22.3 10.1 23.9 18.6zM117.7 450.8c-2.2-.4-4.5-.6-6.8-.6-8.5 0-12.7 5.3-12.7 14.4v24.7H84v-50.6h14v7.8h.3c2.8-5 8-9.3 14.8-9.3 1.6 0 3.1.1 4.7.4l-.1 13.2zM172.6 489.2h-14.2v-6.3h-.3c-4.1 6-9.3 8-14.8 8-8.3 0-18.4-5.1-18.4-22.3v-30h14.3v28.2c0 7.4 3.5 11.4 9 11.4 6.2 0 10.2-4.3 10.2-12.8v-26.9h14.3v50.7zM185.7 438.6h14.1v6.3h.4c3.5-5.6 9.2-7.9 15-7.9 11.4 0 19.4 7.6 19.4 23.2v29.1h-14.3v-28.1c0-7.7-3.6-11.5-9.5-11.5-6.3 0-10.8 4.4-10.8 12.9v26.8h-14.3v-50.8zM294.7 455.4h-14.2c-1.3-3.9-4.8-6.5-9.8-6.5-7.7 0-12.4 6-12.4 14.9 0 8.4 4.7 15 12.8 15 4.5.2 8.6-2.7 10.1-7h14.5c-2.9 10.4-10.6 19.1-24.8 19.1-15 0-27.1-10.7-27.1-27.3 0-14.8 10.3-26.9 27-26.9 14.5.2 22.3 10.2 23.9 18.7zM305.3 413.1h14.3V445h.4c3.5-5.6 9.2-7.9 14.9-7.9 11.3 0 19.3 7.5 19.3 23.2v29.1h-14.3V461c0-7.5-3.6-11.4-9.5-11.4-6.2 0-10.8 4.3-10.8 12.9v26.8h-14.3v-76.2zM381.3 514.1h-13.5l9.3-25.3-18.4-50.3h14.8l7.3 22c1.4 4.1 2.5 8.2 3.4 12.4h.4c.8-4.2 1.9-8.4 3.3-12.4l7.1-22h14.1l-27.8 75.6z" class="st8"/><path d="M476.4 489.2H468v-6.8h-.2c-4.7 5.6-11.6 8.8-18.9 8.6-13.8 0-25.6-10.7-25.6-27.2 0-15.3 10.9-27 25.6-27 9.6 0 14.6 3.8 18.9 8.9h.2V413h8.4v76.2zm-26-5.6c9.8 0 18.4-7.9 18.4-19.5 0-12.1-8-20-18.2-20-12.4 0-18.6 9.8-18.6 19.7 0 9.9 6.2 19.8 18.4 19.8zM540.6 489.2h-8.4v-6.8h-.2c-4.6 5.5-11.4 8.7-18.5 8.6-13.8 0-26-10.7-26-27.2 0-15.7 11.4-27 26.6-27 9.2 0 14.6 4.9 18.1 9h.1v-7.3h8.4v50.7zm-25.9-5.6c9.5 0 18.3-8 18.3-19.5 0-12.1-8.1-20-18.1-20-12.7 0-18.7 9.9-18.7 19.7 0 9.8 6 19.8 18.5 19.8zM549.7 438.6h6.7v-16.2h8.4v16.2h13.5v7h-13.5v26.8c0 8.3 2.5 10.5 7.9 10.5 2.1 0 4.1-.3 6.1-.8v6.8c-2.5.8-5.2 1.1-7.8 1.1-12.3 0-14.6-8.3-14.6-17.9v-26.4h-6.7v-7.1zM637.6 489.2h-8.4v-6.8h-.2c-4.6 5.5-11.4 8.7-18.5 8.6-13.8 0-26-10.7-26-27.2 0-15.7 11.4-27 26.6-27 9.2 0 14.6 4.9 18.1 9h.1v-7.3h8.4v50.7zm-25.9-5.6c9.6 0 18.3-8 18.3-19.5 0-12.1-8.1-20-18.1-20-12.7 0-18.7 9.9-18.7 19.7 0 9.8 6 19.8 18.5 19.8z"/><path d="M335 364c-83.7-.6-157.3-54.7-180.2-132.5-28.3-95.9 27.1-192.8 124.7-216.6 73.7-18 137 2.2 187.1 58 58 64.6 60.7 155.3 11.3 220.6-29.9 39.6-70.1 62.4-119.4 68.8-6 .8-12.1 1.2-18.2 1.7-1.7.1-3.5 0-5.3 0zM321.5 17.4c-5.1 0-10.1-.2-15.2 0-1.7.1-4.9.5-3.5 3.2 2.2 4.3 4.7 8.8 8.3 11.8 2.7 2.2 7 0 10.4-1.1l24.7-2.7h35c-11.6-6-23.8-8-36.2-9-7.8.6-15.4-3.3-23.5-2.2zm-82.7 23.3c-20 10.1-35.7 25.5-49 42.9-22.4 29.6-33 63.6-32.2 100.6.7 35.8 11.7 68.5 33.4 97.3 5.8 7.8 11.8 15.4 19.7 21.7 1.4-2 .9-3.9.8-5.5-.9-10 2.5-18.5 8.5-26.2 2.2-2.8 4.4-5.5 6.7-8.2 2.8-3.2 3-4.8-1.9-6.4-20-6.4-35.9-18.1-45.9-37.1-.3-.9-1-1.6-1.9-2-9.1-4-11.3-11.5-10.4-20.6 1.7-17.6 7.1-34.4 11.6-51.4 1-3.4 3.1-6.5 6-8.5 5-3.6 7.9-8.4 9.9-14.2 2.7-7.9 8.2-11.5 16.6-11.6 4.1 0 8.3-.1 12.4 0 6.5.2 12.4-1.1 17-6.1 4-.5 5.8-4.4 9-6.1 8.8-4.9 12.3-12.6 12.5-22.7.2-9.4 3.9-17.4 13.3-21.8 5.1-2.6 9.8-5.8 14-9.6 3.2-2.7 4.9-5.9 4.4-10.3-.8-5.1.2-10.4 2.9-14.8-21.4 3.2-40.2 9.5-57.4 20.6zm75.4 109.5c9.8.1 17 4.4 23.5 10 12 10.3 15.1 38.7-2.6 48.3-15.7 8.5-32.1 14-50.2 12.3-8.4-.7-16.9-1.5-25.3-2.4-20.7-2-41.4-5.9-62.3-2.7-4.8.7-6.1 1.9-2.9 5.8 12.9 15.9 29.4 24.8 50.2 23.7 20.6-1.1 41.2-4.2 61.8-.4 23.3 4.3 41.4-2.9 54.1-23.2 1.6-2.5 3.6-5.2 7.1-3.1 3.4 2.1 2.2 4.8.4 7.6-10.8 17-24 30.2-46.2 29.8-3.5-.1-7.1.7-10.6 1-3.3.3-6.2 1.4-8.1 4.2-4.1 6.2-8.8 12.2-11.5 19.2-7.2 18.5-14.3 37-21.6 55.5-1.6 4-.9 6.3 3.6 7.9 19.2 6.8 39.3 10.3 59.6 10.5 38.7.2 73.6-11.3 104.6-34.6 1.8-1.4 2.9-2.7 2.1-4.9-5.1-13.4-1.5-26.3 2.1-39.3 3-10.6 4.9-21.4 3-32.6s-1.8-11.2-10.8-5.2c-7.8 5.2-16.5 8.3-25.1 11.5-3.2 1.2-7.9 1.8-9.2-1.2-1.7-4.1 3.6-4.1 6.1-5.4 7.1-3.4 15.1-5.1 21.3-10 16.1-13 23.8-30.8 26.6-50.9 1.3-9.1 1.7-18.4 2.5-27.6.2-1.8.3-3.6 2.9-3.6s2.5 2.1 2.6 3.7c.1 1.4-.1 2.8 0 4.1.6 21.6-4 42.7-7.4 63.8-3.5 22.2-1.1 43.9 3.7 65.6.6 2.7 1.8 5.9 4 6.7 3.1 1 4.2-2.8 5.8-4.9 15.4-20 25.2-42.4 30.3-67.1 3.9-19.1 3.4-37.2-6.5-54.9-7-12.5-13.3-25.4-20.1-38-14.1-26.2-34.1-48-52.9-70.7-5.7-6.9-12-13.6-20.2-17.9-1.2-.6-2.4-1.9-3.8-1.2-1.9 1-.8 2.9-.4 4.2 2.5 10.3-6.7 22-16.7 25.5-2.2.8-5 1.9-6.4-.7-1.3-2.6 1.7-3.4 3.2-4.7 6.7-5.8 10.5-15.4 8.8-22.8-4.9 2.3-9.1 5.2-11.6 10.4-1.1 2.2-2.6 6.3-5.3 4.8-3.3-1.8-1.5-5.6.3-8.4 1.6-2.5 3.6-4.7 6.1-6.3 2.6-1.7 5.9-2 8.4-4.6-2.8-1.6-6-2.3-9.2-2.1-18.5.2-37.1-.1-55.3 3.6-5.8 1.1-11.7 2.4-16.2 6.5-6.5 6-13.8 11.1-21.7 15.2-3.2 1.7-6.5 3.6-5.3 8 1.1 4.2 4.4 6.1 8.6 6.7 1.7.2 3.9-.3 4.4 2 .4 2.1-1.7 3-3 4-11.8 9.2-23.3 18.7-34.7 28.4-7.4 6.4-16.9 9.8-26.7 9.3-3.9-.1-7.9 0-11.8 0-9.3.1-11.3 2.8-8.8 11.7.9 3.3 1.2 6.7-1.7 9.3-3 2.6-6 2.3-9.1-.1-1.6-1.3-2.7-.7-3.9.8-2.7 3.3-2.2 5.8 2.1 6.9 7.6 2 13.2-2 18.5-6.8 1.1-1 2.3-2.7 4-1.6 1.6 1.2.6 2.9-.1 4.3-3.3 6.4-16.1 13.2-23.3 12.3-1.9-.2-2.9 0-3.4 2-3 12.4-7.1 24.6-8.1 37.4-1 13.1 2 15.6 14.9 12.6 21.2-4.9 42.2-6.3 63.5.3 11.5 3.6 23.8 3.9 35.8 2.6 14.1-1.5 28.1-3.9 39.9-12.9 4.5-3.2 7.4-8.3 7.8-13.9.8-8.3-3-14.4-8.7-19.7-4.8-4.4-9.9-8.7-15.5-13.6zm-43 101.8v.2c-2-.1-3.9-.4-5.9-.4-9-.1-18.4-.8-25.3 6.7-8.5 9.2-15.2 19.6-17.6 32.2-3.7 19.7-1 25.2 16.3 35.4l5.5 3.3c14 8.1 14 8.1 19.1-7 2.4-7 .7-12.1-5.6-16.2-1.5-1-3.2-1.6-4.7-2.4-1.5-.8-2.8-1.9-2.5-3.6.3-1.6 1.5-2.9 3.1-3.2 5.4-.7 10.9-2.5 16.3-.6 2.8 1 3.9.2 5-2.1 5.7-12.5 11.5-24.9 17.3-37.4 1.2-2.6.5-3.5-2.2-3.7-6.2-.3-12.6-.8-18.8-1.2zM419.7 47.8c29.7 30.3 54.6 64.9 74 102.6 2-27.5-46.9-95.2-74-102.6z" class="st1"/><path d="M314.2 150.1c5.6 5 10.7 9.3 15.5 13.8 5.6 5.3 9.5 11.4 8.7 19.7-.4 5.6-3.3 10.6-7.8 13.9-11.8 9-25.7 11.4-39.9 12.9-12 1.3-24.3 1-35.8-2.6-21.3-6.7-42.3-5.3-63.5-.3-13 3-15.9.5-14.9-12.6 1-12.8 5-25 8.1-37.4.5-2 1.5-2.2 3.4-2 7.2.9 20-5.9 23.3-12.3.7-1.3 1.7-3.1.1-4.3-1.6-1.1-2.9.5-4 1.6-5.2 4.8-10.8 8.7-18.5 6.8-4.3-1.1-4.8-3.5-2.1-6.9 1.2-1.5 2.4-2.1 3.9-.8 3 2.4 6.1 2.7 9.1.1s2.7-6 1.7-9.3c-2.5-8.9-.5-11.7 8.8-11.7 3.9 0 7.9-.1 11.8 0 9.8.4 19.3-2.9 26.7-9.3 11.4-9.7 22.9-19.2 34.7-28.4 1.3-1 3.4-1.9 3-4-.5-2.3-2.8-1.8-4.4-2-4.2-.6-7.4-2.6-8.6-6.7-1.2-4.4 2.1-6.4 5.3-8 7.9-4.1 15.1-9.2 21.7-15.2 4.6-4.1 10.4-5.4 16.2-6.5 18.3-3.7 36.8-3.3 55.3-3.6 3.2-.2 6.4.5 9.2 2.1-2.5 2.6-5.9 2.9-8.4 4.6-2.5 1.7-4.5 3.8-6.1 6.3-1.7 2.7-3.6 6.5-.3 8.4 2.7 1.5 4.2-2.5 5.3-4.8 2.5-5.1 6.7-8 11.6-10.4 1.7 7.4-2 17-8.8 22.8-1.6 1.3-4.6 2.2-3.2 4.7 1.3 2.5 4.1 1.5 6.4.7 10-3.5 19.3-15.2 16.7-25.5-.3-1.3-1.5-3.2.4-4.2 1.4-.7 2.6.6 3.8 1.2 8.2 4.2 14.5 10.9 20.2 17.9 18.7 22.7 38.7 44.5 52.9 70.7 6.8 12.6 13.1 25.5 20.1 38 9.9 17.7 10.4 35.8 6.5 54.9-5.1 24.7-14.9 47.2-30.3 67.1-1.6 2.1-2.7 5.8-5.8 4.9-2.2-.7-3.4-3.9-4-6.7-4.8-21.7-7.2-43.4-3.7-65.6 3.3-21.1 8-42.1 7.4-63.8 0-1.4.2-2.8 0-4.1-.2-1.7.1-3.7-2.6-3.7s-2.7 1.9-2.9 3.6c-.8 9.2-1.2 18.5-2.5 27.6-2.9 20-10.5 37.9-26.6 50.9-6.1 4.9-14.2 6.6-21.3 10-2.5 1.2-7.8 1.2-6.1 5.4 1.2 3 6 2.4 9.2 1.2 8.7-3.2 17.4-6.4 25.1-11.5 9-6 8.9-5.9 10.8 5.2s0 22-3 32.6c-3.6 13-7.2 25.9-2.1 39.3.8 2.2-.2 3.5-2.1 4.9-30.9 23.2-65.8 34.7-104.5 34.5-20.3-.2-40.5-3.7-59.6-10.5-4.4-1.6-5.2-3.8-3.6-7.9 7.2-18.5 14.3-37 21.6-55.5 2.8-7 7.4-13 11.5-19.2 1.9-2.8 4.8-3.9 8.1-4.2 3.5-.3 7.1-1.1 10.6-1 22.2.5 35.4-12.7 46.2-29.8 1.8-2.8 2.9-5.5-.4-7.6-3.3-2-5.5.6-7.1 3.1-12.7 20.3-30.8 27.5-54.1 23.2-20.6-3.8-41.2-.7-61.8.4-20.8 1.1-37.3-7.8-50.2-23.7-3.3-4-1.9-5.1 2.9-5.8 21-3.2 41.6.7 62.3 2.7 8.4.8 16.9 1.6 25.3 2.4 18.2 1.7 34.5-3.8 50.2-12.3 17.7-9.6 14.6-38.1 2.6-48.3-6.7-5.6-13.8-9.9-23.6-10.1zm25-72.4c-8.2-.1-18.9 5.1-23.8 11.4-1.2 1.6-1.7 3.2-.7 4.8 1.1 1.9 2.8.9 4-.1 2.1-1.6 2.6.4 3.7 1.4 6.8 6.1 15.7 4.4 19.5-3.6 1.3-2.9.6-6.9 5.1-8.2 1.2-.3.8-2.7-1.1-3.7-2.1-1.2-4.4-1.8-6.7-2zm-90 88.4c5.2-.9 9.8-2.5 12.7-6.9 1.3-2 1.4-4-.2-5.9-1.7-1.9-3.1-1.6-5.2-.7-2.8 1.3-5.8 2.8-8.8 3.2-7.5.9-15.3 2.1-21-5.1-1.2-1.5-2.3-4.5-4.7-3-2.5 1.5.1 3.9.5 5.8.2 1.2 1.5 2.2 2.4 3.2 6.4 7.9 16 7 24.3 9.4zm-9.3-33.9c-3.7.5-7.8.7-8.3 5.6-.4 3.7 6 12.4 9 12.7 3.2.3 7-4.5 6.9-8.9 0-5.3-3.3-9.3-7.6-9.4z" class="st2"/><path d="M271.2 252c6.3.4 12.6 1 18.9 1.3 2.8.2 3.4 1.1 2.2 3.7-5.8 12.4-11.6 24.9-17.3 37.4-1.1 2.3-2.2 3.1-5 2.1-5.4-1.9-10.9-.2-16.3.6-1.6.3-2.9 1.6-3.1 3.2-.3 1.8 1.1 2.9 2.5 3.6 1.4.8 3.2 1.4 4.7 2.4 6.3 4.1 8 9.1 5.6 16.2-5.1 15.2-5.1 15.1-19.1 6.9l-5.5-3.3c-17.3-10.2-20-15.7-16.3-35.4 2.4-12.5 9.1-22.9 17.6-32.2 6.9-7.5 16.3-6.8 25.3-6.7 2 0 3.9.2 5.9.4l-.1-.2z" class="st2"/><path d="M296.1 20c-2.7 4.4-3.8 9.7-2.9 14.8.5 4.4-1.2 7.6-4.4 10.3-4.2 3.8-8.9 7.1-14 9.7-9.4 4.4-13.1 12.5-13.3 21.8-.2 10.1-3.7 17.7-12.5 22.7-3.2 1.8-4.9 5.7-9 6.1-4.6 5-10.5 6.3-17 6.1-4.1-.1-8.3-.1-12.4 0-8.4.1-13.9 3.7-16.6 11.6-2 5.7-4.9 10.5-9.9 14.2-2.9 2.1-5 5.1-6 8.5-4.5 17-9.9 33.8-11.6 51.4-.9 9.1 1.4 16.6 10.4 20.6.9.4 1.5 1.1 1.9 2 10 19 25.9 30.6 45.9 37.1 5 1.6 4.7 3.1 1.9 6.4-2.3 2.7-4.5 5.4-6.7 8.2-5.9 7.7-9.3 16.2-8.5 26.2.1 1.6.6 3.5-.8 5.5-7.8-6.3-13.9-14-19.7-21.8-21.7-28.8-32.6-61.4-33.4-97.3-.8-37.1 9.8-71.1 32.2-100.6 13.2-17.5 29-32.8 49-42.9 17.3-11 36.1-17.3 57.4-20.6zm123.6 27.8c29.7 30.3 54.6 64.9 74 102.6 2-27.5-46.9-95.2-74-102.6zm-98.2-30.4c-5.1 0-10.1-.2-15.2 0-1.7.1-4.9.5-3.5 3.2 2.2 4.3 4.7 8.8 8.3 11.8 2.7 2.2 7 0 10.4-1.1l24.7-2.7h35c-11.6-6-23.8-8-36.2-9-7.8.6-15.4-3.3-23.5-2.2z" class="st8"/><path d="M339.2 77.7c2.3.2 4.6.9 6.7 2 1.8 1 2.2 3.3 1.1 3.7-4.5 1.3-3.7 5.3-5.1 8.2-3.8 8.1-12.7 9.8-19.5 3.6-1-.9-1.5-3-3.7-1.4-1.2.9-2.9 2-4 .1-1-1.6-.5-3.2.7-4.8 5-6.3 15.7-11.5 23.8-11.4zM249.2 166.1c-8.3-2.4-17.9-1.5-24.4-9.3-.9-1.1-2.2-2.1-2.4-3.2-.4-1.9-3-4.3-.5-5.8s3.5 1.5 4.7 3c5.7 7.2 13.5 6 21 5.1 3-.4 6-1.8 8.8-3.2 2.1-1 3.6-1.2 5.2.7 1.6 1.8 1.5 3.9.2 5.9-2.8 4.3-7.4 5.8-12.6 6.8z" class="st1"/><path d="M239.9 132.2c4.3.1 7.6 4.1 7.7 9.5 0 4.3-3.7 9.1-6.9 8.9-3-.2-9.5-8.9-9-12.7.5-4.9 4.5-5.1 8.2-5.7z" class="st1"/></svg>
