<svg xmlns="http://www.w3.org/2000/svg" viewBox="0 0 300 300" width="300" height="300"><defs><style>.cls-1{fill:#d5d3dd}.cls-2{fill:#e2cbb5}.cls-3{fill:#fff}.cls-4{fill:#9fa628}.cls-5{fill:#bf6c35}.cls-6{fill:#663f4c}</style></defs><g><g><path d="M250 82v3a3 3 0 0 0 6 0v-3zm-12 0v3a3 3 0 0 0 6 0v-3zm-12 0v3a3 3 0 0 0 6 0v-3zm-12 0v3a3 3 0 0 0 6 0v-3zm30 20v-3a3 3 0 0 1 6 0v3zm-12 0v-3a3 3 0 0 1 6 0v3zm-12 0v-3a3 3 0 0 1 6 0v3zm-12 0v-3a3 3 0 0 1 6 0v3z" class="cls-1"/><path d="M298.83 208 284 193.17V188a28.13 28.13 0 0 0-24-27.71V156h4a28 28 0 0 0 28-28v-28a4 4 0 0 0-8 0v1a1 1 0 0 1-2 0v-1a4 4 0 0 0-8 0v1a1 1 0 0 1-2 0v-1a4 4 0 0 0-8 0v24a4 4 0 0 1-4 4v-28h-52a8 8 0 0 1 0-16h52v-6.26a8 8 0 0 0 0-15.48V52l-5-5h-62l-5 5v10.26a8 8 0 0 0 0 15.48V128a4 4 0 0 1-4-4v-24a4 4 0 0 0-8 0v1a1 1 0 0 1-2 0v-1a4 4 0 0 0-8 0v1a1 1 0 0 1-2 0v-1a4 4 0 0 0-8 0v28a28 28 0 0 0 28 28h4v16a4 4 0 0 1-4 4h-16v42.83L182.83 204H188a27.92 27.92 0 0 0 25.3-16H252a4 4 0 0 1 4 4v16z" class="cls-2"/><g><circle cx="212" cy="66" r="9" class="cls-3"/><circle cx="212" cy="66" r="5" class="cls-4"/></g><g><circle cx="236" cy="66" r="9" class="cls-3"/><circle cx="236" cy="66" r="5" class="cls-4"/></g><path d="M188 48c0-15.25 8.75-24 24-24h24c15.25 0 24 8.75 24 24v4c-1.75 0-2.38-1-3-2s-1.25-2-3-2-2.38 1-3 2-1.25 2-3 2-2.38-1-3-2-1.25-2-3-2-2.38 1-3 2-1.25 2-3 2-2.38-1-3-2-1.25-2-3-2-2.38 1-3 2-1.25 2-3 2-2.38-1-3-2-1.25-2-3-2-2.38 1-3 2-1.25 2-3 2-2.38-1-3-2-1.25-2-3-2-2.38 1-3 2-1.25 2-3 2-2.38-1-3-2-1.25-2-3-2-2.38 1-3 2-1.25 2-3 2z" class="cls-5"/></g><g><path d="m96 100-4-8-4 8 4 2 4-2zm-12 0-4-8-4 8 4 2 4-2zm-12 0-4-8-4 8 4 2 4-2zm-12 0-4-8-4 8 4 2 4-2zm-12 0-4-8-4 8 4 2 4-2zm42-16-4 8-4-8 4-2 4 2zm-12 0-4 8-4-8 4-2 4 2zm-12 0-4 8-4-8 4-2 4 2zm-12 0-4 8-4-8 4-2 4 2z" class="cls-1"/><g><path d="M28 167.4 3.88 154 28 140.6v26.8z" class="cls-2"/><path d="M28 147.4 3.88 134 28 120.6v26.8z" class="cls-2"/><path d="M28 127.4 3.88 114 28 100.6v26.8z" class="cls-2"/><path d="M28 107.4 3.88 94 28 80.6v26.8z" class="cls-2"/></g><path d="M44 100a8 8 0 0 1 0-16h52V48c0-6.75-1.72-12.22-5-16.22l5.29-5.29A10.61 10.61 0 0 0 102 28a2 2 0 0 0 0-4c-3.81 0-6-2.19-6-6a2 2 0 0 0-4 0 10.61 10.61 0 0 0 1.51 5.66L88.22 29c-4-3.28-9.47-5-16.22-5H48c-6.75 0-12.22 1.72-16.22 5l-5.29-5.29A10.61 10.61 0 0 0 28 18a2 2 0 0 0-4 0c0 3.81-2.19 6-6 6a2 2 0 0 0 0 4 10.61 10.61 0 0 0 5.66-1.51L29 31.78c-3.28 4-5 9.47-5 16.22v124a4 4 0 0 1-4 4H4v42.83L18.83 204H24a27.92 27.92 0 0 0 25.3-16H88a4 4 0 0 1 4 4v16h42.83L120 193.17V188a28.13 28.13 0 0 0-24-27.71V160h51.7l-11.58-9.27 14.2-4.73-14.2-4.73L147.7 132H96v-4h51.7l-11.58-9.27 14.2-4.73-14.2-4.73L147.7 100z" class="cls-4"/><g><circle cx="48" cy="66" r="9" class="cls-3"/><circle cx="48" cy="66" r="5" class="cls-5"/></g><g><circle cx="72" cy="66" r="9" class="cls-3"/><circle cx="72" cy="66" r="5" class="cls-5"/></g></g><g><path d="M4 266a14 14 0 0 0 14 14h8v-7h-8a6 6 0 0 1-6-6v-12h12v-7H12v-9h14v-7H4z" class="cls-6"/><path d="M44 267a6 6 0 0 1-6 6h-2v-41h-8v48h10a14 14 0 0 0 14-14v-34h-8z" class="cls-6"/><path d="M54 232h8v48h-8z" class="cls-6"/><path d="M72 232h-8v48h20v-7H72v-41z" class="cls-6"/><path d="M114 237.24a13.18 13.18 0 0 0-10-5.24H94v48h8v-41h2a6 6 0 0 1 6 6v35h8v-35a6 6 0 0 1 6-6h2v41h8v-48h-10a13.18 13.18 0 0 0-10 5.24z" class="cls-6"/><path d="M136 246v34h8v-17h8v17h8v-48h-10a14 14 0 0 0-14 14zm16 10h-8v-11a6 6 0 0 1 6-6h2z" class="cls-6"/><path d="M172 232h-10v48h8v-17h2a6 6 0 0 1 6 6v11h8v-10a12.4 12.4 0 0 0-5.54-10.5A12.4 12.4 0 0 0 186 249v-3a14 14 0 0 0-14-14zm6 18a6 6 0 0 1-6 6h-2v-17h2a6 6 0 0 1 6 6z" class="cls-6"/><path d="M188 239h6v41h8v-41h6v-7h-20v7z" class="cls-6"/><path d="M210 232h8v48h-8z" class="cls-6"/><path d="M220 246v34h8v-16h8v16h8v-48h-10a14 14 0 0 0-14 14zm16 11h-8v-12a6 6 0 0 1 6-6h2z" class="cls-6"/><path d="M262 237.64a15.64 15.64 0 0 0-12-5.64h-4v48h8v-39.35c4.12 1.71 8 6.53 8 11.35v28h8v-48h-8z" class="cls-6"/><path d="M296 248v-4c0-9-4.28-13-12-13s-12 5.28-12 13c0 15 16 15.06 16 24v1c0 3-1 5-4 5s-4-2-4-5v-5h-8v4c0 9.08 4.28 13 12 13s12-5.28 12-13c0-14.94-16-15-16-24v-1c0-3 1-5 4-5s4 2 4 5v5z" class="cls-6"/></g></g></svg>
