<?xml version="1.0" encoding="UTF-8"?><svg id="Ebene_1" xmlns="http://www.w3.org/2000/svg" xmlns:xlink="http://www.w3.org/1999/xlink" viewBox="0 0 510.24 198.43" height="198.43" width="510.24"><defs><style>.cls-1{fill:url(#linear-gradient);}.cls-2{fill:#485156;}.cls-3{fill:url(#linear-gradient-3);}.cls-4{fill:url(#linear-gradient-2);}</style><linearGradient id="linear-gradient" x1="52.49" y1="30.69" x2="76.68" y2="52.22" gradientUnits="userSpaceOnUse"><stop offset="0" stop-color="#1db4e9"/><stop offset=".13" stop-color="#20aee0"/><stop offset=".35" stop-color="#2a9ec7"/><stop offset=".63" stop-color="#3985a0"/><stop offset=".95" stop-color="#4f6269"/><stop offset="1" stop-color="#535d61"/></linearGradient><linearGradient id="linear-gradient-2" x1="33.65" y1="66.14" x2="81.46" y2="66.14" gradientUnits="userSpaceOnUse"><stop offset="0" stop-color="#2d363a"/><stop offset=".02" stop-color="#353e42"/><stop offset=".07" stop-color="#475055"/><stop offset=".13" stop-color="#545e62"/><stop offset=".21" stop-color="#5b656a"/><stop offset=".36" stop-color="#5e686d"/><stop offset=".7" stop-color="#475055"/><stop offset="1" stop-color="#384145"/></linearGradient><linearGradient id="linear-gradient-3" x1="36.66" y1="28.21" x2="29.59" y2="79.15" gradientUnits="userSpaceOnUse"><stop offset="0" stop-color="#0097cb"/><stop offset=".16" stop-color="#1db4e9"/><stop offset=".5" stop-color="#19b1e6"/><stop offset=".77" stop-color="#0fa9df"/><stop offset="1" stop-color="#009dd4"/></linearGradient></defs><path class="cls-1" d="M81.34,47.08c-2.49-13.92-34.2-26.34-47.57-19.76,3.97-.05,7.92,.45,11.77,1.54,3.15,.89,6.23,2.18,9.17,3.88,10.22,5.9,16.94,15.65,19.53,26.66l.03,.12c2.84-2.72,5.23-5.81,7.17-9.17,.11-1.13,.08-2.23-.11-3.29Z"/><path class="cls-4" d="M81.46,50.37c-1.94,3.36-4.34,6.45-7.17,9.17-2.31,2.2-4.89,4.15-7.75,5.81-10.19,5.88-21.95,6.83-32.76,3.61l-.12-.02c1,3.94,2.59,7.67,4.67,11.11,.75,.48,1.51,.87,2.31,1.16,13.13,4.8,39.32-15.91,40.83-30.83Z"/><path class="cls-3" d="M32.41,58.94c0-18.75,13.14-30.07,13.14-30.07-3.85-1.1-7.81-1.6-11.77-1.54-.87,.44-1.66,.95-2.37,1.54-10.89,9.23-5.58,43.09,6.92,51.17-2.07-3.44-3.67-7.17-4.67-11.11-.81-3.21-1.25-6.55-1.25-9.99Z"/><g><path class="cls-2" d="M98.14,106.76c1.23,0,1.81,.44,1.81,1.74v12.9c0,6.09-3.91,11.82-17.04,11.82s-17.03-5.73-17.03-11.82v-26.82c0-6.09,3.91-11.82,17.03-11.82s17.04,5.73,17.04,11.82v2.9c0,1.23-.44,1.81-1.67,1.81h-6.02c-1.3,0-1.81-.58-1.81-1.81v-1.16c0-3.62-2.54-5.43-7.39-5.43s-7.32,1.81-7.32,5.43v23.34c0,3.62,2.46,5.44,7.32,5.44s7.39-1.81,7.39-5.37v-4.86h-7.1c-1.3,0-1.88-.43-1.88-1.74v-4.64c0-1.3,.58-1.74,1.88-1.74h14.79Z"/><path class="cls-2" d="M134.17,83.35c1.31,0,1.96,.58,2.32,1.81l13.48,45.67c.36,1.16-.07,1.81-1.3,1.81h-6.52c-1.23,0-1.74-.65-2.1-1.81l-2.54-8.84h-13.48l-2.54,8.84c-.36,1.16-.87,1.81-2.17,1.81h-5.87c-1.31,0-1.74-.65-1.38-1.81l13.56-45.67c.36-1.23,.94-1.81,2.25-1.81h6.31Zm-1.23,22.83c-.94-2.97-2.03-12.25-2.1-13.19-.14,.94-1.38,10.08-2.25,13.12l-2.46,8.12h9.21l-2.39-8.05Z"/><path class="cls-2" d="M173.16,113.87v16.89c0,1.3-.44,1.88-1.74,1.88h-6.31c-1.31,0-1.74-.58-1.74-1.88v-45.52c0-1.31,.43-1.88,1.74-1.88h15.22c13.12,0,17.54,5.72,17.54,11.81v6.89c0,4.28-2.17,8.34-7.97,10.44l7.83,18.27c.51,1.16-.36,1.88-1.67,1.88h-6.38c-1.02,0-1.31-.72-1.81-1.88l-7.1-16.89h-7.61Zm0-22.4v14.28h7.17c4.86,0,7.83-1.81,7.83-5.44v-3.41c0-3.62-2.97-5.44-7.83-5.44h-7.17Z"/><path class="cls-2" d="M232.23,83.35c1.31,0,1.96,.58,2.32,1.81l13.48,45.67c.36,1.16-.07,1.81-1.31,1.81h-6.52c-1.23,0-1.74-.65-2.1-1.81l-2.54-8.84h-13.48l-2.54,8.84c-.36,1.16-.87,1.81-2.18,1.81h-5.87c-1.31,0-1.74-.65-1.38-1.81l13.55-45.67c.36-1.23,.94-1.81,2.25-1.81h6.3Zm-1.23,22.83c-.95-2.97-2.03-12.25-2.1-13.19-.15,.94-1.38,10.08-2.25,13.12l-2.46,8.12h9.21l-2.39-8.05Z"/><path class="cls-2" d="M271.23,130.76c0,1.3-.44,1.88-1.74,1.88h-6.31c-1.31,0-1.74-.58-1.74-1.88v-45.52c0-1.31,.43-1.88,1.74-1.88h6.31c1.3,0,1.74,.58,1.74,1.88v45.52Z"/><path class="cls-2" d="M287.76,94.58c0-6.09,4.5-11.82,17.62-11.82s17.61,5.73,17.61,11.82v26.82c0,6.09-4.49,11.82-17.61,11.82s-17.62-5.73-17.62-11.82v-26.82Zm25.45,1.74c0-3.62-2.98-5.43-7.83-5.43s-7.76,1.81-7.76,5.43v23.34c0,3.62,2.9,5.44,7.76,5.44s7.83-1.81,7.83-5.44v-23.34Z"/><g><path class="cls-2" d="M345.42,112.22v19.57c0,.58-.22,.87-.8,.87h-2.17c-.58,0-.87-.29-.87-.87v-47.56c0-.58,.29-.87,.8-.87h14.14c11.67,0,15.15,4.57,15.15,10.22v8.41c0,4.64-2.25,8.48-9.28,9.79l9.93,20.01c.22,.51-.14,.87-.8,.87h-2.17c-.73,0-.87-.36-1.09-.87l-9.57-19.65c-.72,.07-1.45,.07-2.17,.07h-11.09Zm0-25.52v22.26h11.09c8.48,0,11.31-3.04,11.31-7.47v-7.32c0-4.42-2.83-7.47-11.31-7.47h-11.09Z"/><path class="cls-2" d="M392.18,132.67c-.51,0-.8-.29-.8-.87v-47.56c0-.58,.29-.87,.87-.87h24.72c.58,0,.87,.22,.87,.87v1.59c0,.65-.29,.87-.87,.87h-21.75v18.41h20.44c.58,0,.87,.22,.87,.87v1.52c0,.58-.29,.87-.87,.87h-20.44v20.95h22.62c.58,0,.87,.22,.87,.87v1.59c0,.65-.29,.87-.87,.87h-25.66Z"/><path class="cls-2" d="M475.11,131.8c0,.58-.22,.87-.8,.87h-2.1c-.58,0-.87-.29-.87-.87v-40.09l-1.3,3.77-11.89,28.78c-.22,.58-.58,.87-1.16,.87h-2.03c-.58,0-.87-.29-1.09-.87l-12.32-29.29c-.51-1.01-1.01-2.83-1.09-3.19v40.02c0,.58-.22,.87-.8,.87h-1.96c-.58,0-.87-.29-.87-.87v-47.56c0-.58,.29-.87,.87-.87h1.96c.44,0,.65,.15,.8,.51l14.35,33.85c.65,1.52,1.16,3.41,1.16,3.41,0,0,.72-2.1,1.23-3.33l14.21-34c.15-.36,.36-.43,.8-.43h2.1c.58,0,.8,.29,.8,.87v47.56Z"/></g></g><g><path class="cls-2" d="M69.07,169.85c0,.35-.11,.53-.49,.53h-1.47c-.35,0-.49-.18-.49-.53v-22.78c0-.35,.14-.52,.49-.52h1.47c.39,0,.49,.18,.49,.52v22.78Z"/><path class="cls-2" d="M98.47,169.85c0,.35-.14,.53-.53,.53h-1.4c-.39,0-.53-.18-.53-.53v-18.08c-.14,.6-.46,1.61-.7,2.17l-5.08,12.27c-.14,.35-.35,.53-.7,.53h-1.3c-.35,0-.53-.18-.67-.53l-5.29-12.58c-.14-.31-.39-1.05-.6-1.82v18.05c0,.35-.14,.53-.49,.53h-1.33c-.39,0-.53-.18-.53-.53v-22.78c0-.35,.14-.52,.53-.52h1.33c.24,0,.38,.11,.46,.28l6.62,15.49c.35,.84,.6,1.65,.63,1.79,.04-.11,.38-1.09,.67-1.75l6.48-15.52c.07-.21,.25-.28,.49-.28h1.4c.38,0,.53,.18,.53,.52v22.78Z"/><path class="cls-2" d="M127.85,169.85c0,.35-.14,.53-.53,.53h-1.4c-.39,0-.53-.18-.53-.53v-18.08c-.14,.6-.46,1.61-.7,2.17l-5.08,12.27c-.14,.35-.35,.53-.7,.53h-1.3c-.35,0-.53-.18-.67-.53l-5.29-12.58c-.14-.31-.39-1.05-.6-1.82v18.05c0,.35-.14,.53-.49,.53h-1.33c-.39,0-.53-.18-.53-.53v-22.78c0-.35,.14-.52,.53-.52h1.33c.24,0,.38,.11,.46,.28l6.62,15.49c.35,.84,.6,1.65,.63,1.79,.04-.11,.38-1.09,.67-1.75l6.48-15.52c.07-.21,.25-.28,.49-.28h1.4c.38,0,.53,.18,.53,.52v22.78Z"/><path class="cls-2" d="M137.7,151.38c0-2.8,1.82-5.11,7.57-5.11s7.6,2.31,7.6,5.11v14.16c0,2.8-1.79,5.12-7.6,5.12s-7.57-2.31-7.57-5.12v-14.16Zm12.68,.39c0-2.03-1.4-3.36-5.12-3.36s-5.08,1.33-5.08,3.36v13.39c0,2.03,1.4,3.36,5.08,3.36s5.12-1.33,5.12-3.36v-13.39Z"/><path class="cls-2" d="M163.26,170.38c-.35,0-.49-.18-.49-.53v-22.78c0-.35,.14-.52,.49-.52h6.03c5.78,0,7.57,2.14,7.57,4.9v2.31c0,1.89-.84,3.36-3.15,4.14,2.84,.63,4.14,2.17,4.14,4.31v3.12c0,2.8-1.79,5.05-7.6,5.05h-6.97Zm1.96-21.76v8.51h4.42c3.4,0,4.77-1.37,4.77-3.4v-1.89c0-2.07-1.4-3.22-5.12-3.22h-4.06Zm0,10.48v9.22h5.01c3.75,0,5.12-1.33,5.12-3.36v-2.59c0-1.93-1.37-3.26-5.12-3.26h-5.01Z"/><path class="cls-2" d="M189.55,169.85c0,.35-.11,.53-.49,.53h-1.47c-.35,0-.49-.18-.49-.53v-22.78c0-.35,.14-.52,.49-.52h1.47c.39,0,.49,.18,.49,.52v22.78Z"/><path class="cls-2" d="M202.34,168.24h9.81c.35,0,.49,.14,.49,.49v1.12c0,.39-.14,.53-.49,.53h-11.88c-.28,0-.42-.18-.42-.53v-22.78c0-.35,.14-.52,.49-.52h1.51c.35,0,.49,.18,.49,.52v21.17Z"/><path class="cls-2" d="M223.41,169.85c0,.35-.11,.53-.49,.53h-1.47c-.35,0-.49-.18-.49-.53v-22.78c0-.35,.14-.52,.49-.52h1.47c.39,0,.49,.18,.49,.52v22.78Z"/><path class="cls-2" d="M234.17,170.38c-.32,0-.46-.18-.46-.53v-22.78c0-.35,.14-.52,.49-.52h11.95c.35,0,.53,.14,.53,.52v1.09c0,.39-.18,.53-.53,.53h-9.99v8.16h9.36c.38,0,.53,.14,.53,.53v1.02c0,.39-.14,.53-.53,.53h-9.36v9.32h10.41c.35,0,.53,.14,.53,.49v1.12c0,.39-.18,.53-.53,.53h-12.4Z"/><path class="cls-2" d="M271.11,169.85c0,.35-.11,.53-.49,.53h-1.33c-.24,0-.38-.07-.49-.25l-9.29-16.47c-.77-1.33-1.16-2.17-1.19-2.28v18.47c0,.35-.14,.53-.49,.53h-1.33c-.39,0-.53-.18-.53-.53v-22.78c0-.35,.14-.52,.53-.52h1.33c.24,0,.35,.07,.42,.21l9.5,16.71c.28,.49,1.05,2.1,1.05,2.1v-18.5c0-.35,.14-.52,.49-.52h1.33c.39,0,.49,.18,.49,.52v22.78Z"/><path class="cls-2" d="M300.07,148.37c-3.68,0-4.84,1.3-4.84,3.33v1.05c0,1.72,1.16,2.38,2.03,2.73l6.59,2.49c1.89,.7,3.64,2.1,3.64,4.55v3.01c0,2.8-1.82,5.12-7.5,5.12s-7.5-2.31-7.5-5.12v-1.93c0-.39,.14-.53,.49-.53h1.44c.35,0,.49,.14,.49,.53v1.61c0,2.03,1.33,3.33,5.04,3.33s5.08-1.3,5.08-3.33v-2.17c0-1.82-1.54-2.56-2.91-3.08l-6.27-2.42c-1.47-.56-3.05-2.03-3.05-4.2v-1.96c0-2.8,1.65-5.11,7.22-5.11s7.29,2.31,7.29,5.11v1.65c0,.35-.14,.52-.53,.52h-1.44c-.35,0-.49-.17-.49-.52v-1.33c0-2.03-1.16-3.33-4.8-3.33Z"/><path class="cls-2" d="M316.52,151.38c0-2.8,1.82-5.11,7.57-5.11s7.6,2.31,7.6,5.11v14.16c0,2.8-1.79,5.12-7.6,5.12s-7.57-2.31-7.57-5.12v-14.16Zm12.68,.39c0-2.03-1.4-3.36-5.12-3.36s-5.08,1.33-5.08,3.36v13.39c0,2.03,1.4,3.36,5.08,3.36s5.12-1.33,5.12-3.36v-13.39Z"/><path class="cls-2" d="M354.93,146.55c.35,0,.53,.14,.53,.52v1.09c0,.39-.18,.53-.53,.53h-10.9v8.2h10.27c.35,0,.49,.18,.49,.53v1.12c0,.35-.14,.53-.49,.53h-10.27v10.79c0,.35-.11,.53-.49,.53h-1.47c-.35,0-.49-.18-.49-.53v-22.78c0-.35,.14-.52,.49-.52h12.86Z"/><path class="cls-2" d="M376.56,146.55c.35,0,.53,.14,.53,.52v1.09c0,.39-.18,.53-.53,.53h-6.03v21.16c0,.35-.14,.53-.49,.53h-1.51c-.39,0-.52-.18-.52-.53v-21.16h-6.03c-.39,0-.53-.14-.53-.53v-1.09c0-.38,.14-.52,.53-.52h14.58Z"/><path class="cls-2" d="M401.3,163.54c.28,1.16,.53,2.49,.56,2.77,0-.18,.14-1.16,.56-2.77l4.2-16.47c.11-.35,.25-.52,.63-.52h1.3c.35,0,.49,.18,.39,.52l-5.78,22.78c-.11,.35-.28,.53-.63,.53h-1.47c-.35,0-.53-.18-.63-.53l-4.24-16.75c-.28-1.05-.42-2.17-.46-2.42-.03,.21-.28,1.54-.49,2.45l-4.24,16.71c-.11,.35-.28,.53-.67,.53h-1.47c-.32,0-.49-.18-.6-.53l-5.78-22.78c-.11-.35,.04-.52,.42-.52h1.51c.35,0,.49,.18,.59,.52l4.17,16.47c.25,.98,.56,2.59,.56,2.59,0,0,.18-1.09,.56-2.59l4.2-16.47c.11-.35,.25-.52,.63-.52h1.4c.35,0,.49,.18,.6,.52l4.17,16.47Z"/><path class="cls-2" d="M423.01,147.07l7.01,22.78c.11,.35-.04,.53-.42,.53h-1.51c-.35,0-.53-.18-.63-.53l-1.93-6.24h-8.02l-1.89,6.24c-.11,.35-.25,.53-.6,.53h-1.4c-.35,0-.49-.18-.38-.53l6.97-22.78c.1-.35,.28-.52,.66-.52h1.51c.35,0,.52,.18,.63,.52Zm-.56,6.34c-.35-1.12-.81-3.86-.88-4.24-.04,.25-.46,2.84-.88,4.17l-2.59,8.27h6.9l-2.56-8.2Z"/><path class="cls-2" d="M440.39,160.67v9.18c0,.35-.1,.53-.49,.53h-1.47c-.35,0-.49-.18-.49-.53v-22.78c0-.35,.14-.52,.45-.52h6.94c5.82,0,7.6,2.31,7.6,5.11v3.93c0,2.17-1.09,4.06-4.35,4.76l4.56,9.5c.14,.32-.11,.53-.49,.53h-1.47c-.39,0-.46-.21-.63-.53l-4.35-9.18h-5.82Zm0-11.98v9.88h4.94c3.75,0,5.12-1.33,5.12-3.4v-3.12c0-2.03-1.37-3.36-5.12-3.36h-4.94Z"/><path class="cls-2" d="M463.01,170.38c-.31,0-.45-.18-.45-.53v-22.78c0-.35,.14-.52,.49-.52h11.95c.35,0,.53,.14,.53,.52v1.09c0,.39-.18,.53-.53,.53h-9.99v8.16h9.36c.39,0,.53,.14,.53,.53v1.02c0,.39-.14,.53-.53,.53h-9.36v9.32h10.41c.35,0,.53,.14,.53,.49v1.12c0,.39-.18,.53-.53,.53h-12.41Z"/></g></svg>
