<svg xmlns="http://www.w3.org/2000/svg" width="374" height="51" fill="none" viewBox="0 0 154 21"><g fill="currentColor"><path d="M39.78 1.82h-6.064a.249.249 0 0 0-.25.248V17.88c0 .137.112.249.25.249h6.298c1.724 0 3.099-.42 4.124-1.282 1.025-.839 1.56-2.027 1.56-3.541 0-1.025-.255-1.887-.768-2.586a4.397 4.397 0 0 0-1.527-1.268c-.19-.097-.207-.387-.036-.514.346-.256.657-.584.934-.99a3.44 3.44 0 0 0 .582-1.935c0-1.304-.489-2.33-1.42-3.075-.933-.746-2.168-1.119-3.682-1.119zm1.609 5.894c-.42.326-1.026.49-1.818.49h-2.827a.249.249 0 0 1-.248-.25V4.539c0-.137.111-.249.248-.249h2.78c.816 0 1.445.187 1.864.513.42.326.63.815.63 1.444 0 .653-.21 1.142-.63 1.468zm1.35 5.429c0 1.537-1.024 2.306-3.051 2.306h-2.944a.249.249 0 0 1-.248-.248v-4.14c0-.137.111-.248.249-.248h2.943c1.025 0 1.77.21 2.283.606s.769.978.769 1.724zM57.914 14.507a.24.24 0 0 0-.237-.293h-2.31a.263.263 0 0 0-.244.178c-.173.476-.46.855-.875 1.104-.466.303-1.071.443-1.794.443-.908 0-1.654-.28-2.213-.84-.526-.504-.862-1.161-.99-1.987a.238.238 0 0 1 .239-.272h8.163c.13 0 .238-.1.247-.23.016-.236.03-.486.03-.749 0-.978-.21-1.887-.63-2.749-.419-.862-1.071-1.561-1.933-2.097-.862-.536-1.91-.815-3.146-.815s-2.283.28-3.145.838a5.12 5.12 0 0 0-1.957 2.214c-.443.909-.652 1.887-.652 2.959s.233 2.05.699 2.982a5.532 5.532 0 0 0 2.073 2.26c.909.583 1.98.862 3.215.862 1.445 0 2.656-.373 3.682-1.118a4.57 4.57 0 0 0 1.778-2.69zm-8.336-3.554a.239.239 0 0 1-.238-.288c.34-1.535 1.3-2.322 2.881-2.322.816 0 1.468.256 1.98.722.452.431.723.97.829 1.617a.236.236 0 0 1-.239.27zM62.167 6.386a.249.249 0 0 1-.249-.249v-2.95a.249.249 0 0 0-.326-.236l-2.368.775a.249.249 0 0 0-.172.236V14.028c0 1.305.373 2.307 1.142 3.029.745.722 1.794 1.072 3.099 1.072h1.638a.249.249 0 0 0 .249-.25v-1.925a.249.249 0 0 0-.249-.248H63.62c-.56 0-.979-.14-1.258-.443-.303-.303-.443-.746-.443-1.351V9.035c0-.138.111-.25.249-.25h2.764a.249.249 0 0 0 .249-.248V6.635a.249.249 0 0 0-.249-.249zM69.7 6.386a.249.249 0 0 1-.249-.249v-2.95a.249.249 0 0 0-.325-.236l-2.369.775a.249.249 0 0 0-.171.236V14.028c0 1.305.372 2.307 1.141 3.029.746.722 1.794 1.072 3.1 1.072h1.638a.249.249 0 0 0 .248-.25v-1.925a.249.249 0 0 0-.248-.248h-1.313c-.559 0-.978-.14-1.258-.443-.303-.303-.443-.746-.443-1.351V9.035c0-.138.112-.25.25-.25h2.764a.249.249 0 0 0 .248-.248V6.635a.249.249 0 0 0-.248-.249zM84.43 14.507a.24.24 0 0 0-.237-.293h-2.31a.263.263 0 0 0-.245.178c-.172.476-.458.855-.874 1.104-.466.303-1.071.443-1.794.443-.908 0-1.654-.28-2.213-.84-.526-.504-.862-1.161-.99-1.987a.238.238 0 0 1 .239-.272h8.163c.13 0 .238-.1.247-.23.016-.236.03-.486.03-.749 0-.978-.21-1.887-.63-2.749-.419-.862-1.071-1.561-1.933-2.097-.862-.536-1.91-.815-3.146-.815-1.234 0-2.283.28-3.145.838a5.12 5.12 0 0 0-1.957 2.214c-.443.909-.652 1.887-.652 2.959s.233 2.05.699 2.982a5.532 5.532 0 0 0 2.073 2.26c.909.583 1.98.862 3.215.862 1.445 0 2.656-.373 3.682-1.118a4.57 4.57 0 0 0 1.778-2.69zm-8.336-3.554a.239.239 0 0 1-.237-.288c.338-1.535 1.299-2.322 2.88-2.322.816 0 1.468.256 1.98.722.452.431.723.97.829 1.617a.236.236 0 0 1-.239.27zM89.194 9.811c.42-.676 1.048-1.025 1.934-1.025h1.592a.249.249 0 0 0 .248-.249V6.635a.249.249 0 0 0-.248-.249h-1.126c-.77 0-1.398.163-1.864.49-.353.247-.666.6-.919 1.083-.051.098-.223.063-.223-.048V6.635a.249.249 0 0 0-.249-.249h-2.368a.249.249 0 0 0-.249.249v11.198c0 .154.14.272.292.245l2.368-.411a.249.249 0 0 0 .206-.245v-4.839c0-1.164.187-2.096.606-2.772zM99.169 17.616c.932.466 2.004.699 3.238.699 1.189 0 2.237-.186 3.169-.582.909-.397 1.631-.956 2.144-1.701.512-.723.768-1.585.768-2.586 0-1.119-.256-2.004-.768-2.657a4.426 4.426 0 0 0-1.841-1.397c-.699-.28-1.631-.56-2.749-.84-.839-.186-1.468-.349-1.934-.512s-.839-.396-1.142-.699c-.303-.28-.442-.675-.442-1.165 0-.559.233-1.025.699-1.374.466-.326 1.095-.513 1.91-.513.839 0 1.538.233 2.074.653.459.396.75.905.872 1.509a.263.263 0 0 0 .254.215h2.457a.24.24 0 0 0 .243-.26 5.042 5.042 0 0 0-.821-2.396 5.092 5.092 0 0 0-2.073-1.748c-.886-.42-1.888-.629-3.006-.629-1.095 0-2.074.21-2.912.583-.862.372-1.538.908-2.004 1.607a4.112 4.112 0 0 0-.699 2.353c0 1.119.233 1.98.746 2.633s1.118 1.142 1.817 1.445c.699.302 1.631.582 2.749.862.792.21 1.398.396 1.864.559s.839.396 1.142.675c.279.303.442.676.442 1.142 0 .7-.279 1.235-.815 1.608s-1.258.536-2.144.536c-.978 0-1.747-.257-2.329-.793-.555-.49-.876-1.138-.98-1.96a.26.26 0 0 0-.253-.23h-2.47a.243.243 0 0 0-.243.26c.076 1.034.352 1.948.847 2.723a5.3 5.3 0 0 0 2.19 1.98zM113.275 6.386a.248.248 0 0 1-.248-.249v-2.95a.25.25 0 0 0-.327-.236l-2.368.775a.249.249 0 0 0-.171.236V14.028c0 1.305.373 2.307 1.141 3.029.746.722 1.794 1.072 3.099 1.072h1.639a.248.248 0 0 0 .248-.25v-1.925a.248.248 0 0 0-.248-.248h-1.313c-.559 0-.978-.14-1.258-.443-.303-.303-.442-.746-.442-1.351V9.035c0-.138.111-.25.248-.25h2.765a.248.248 0 0 0 .248-.248V6.635a.248.248 0 0 0-.248-.249zM125.51 6.759c-.769-.373-1.654-.56-2.633-.56-1.001 0-1.887.187-2.656.56-.768.373-1.374.862-1.794 1.491a3.944 3.944 0 0 0-.698 1.834.238.238 0 0 0 .24.263h2.06a.272.272 0 0 0 .262-.237c.072-.456.297-.846.676-1.184.443-.373 1.025-.583 1.771-.583.745 0 1.328.187 1.747.56s.652.838.652 1.397a.787.787 0 0 1-.233.583c-.139.14-.349.21-.629.21h-2.166c-1.328 0-2.4.349-3.192 1.001-.816.676-1.212 1.585-1.212 2.703 0 .676.163 1.281.489 1.817a3.28 3.28 0 0 0 1.375 1.258c.606.303 1.281.443 2.05.443.839 0 1.561-.163 2.19-.513.471-.26.837-.587 1.099-.988.059-.091.229-.05.229.058v.96c0 .155.14.272.292.245l2.322-.41a.25.25 0 0 0 .206-.245V10.58c0-.862-.233-1.631-.653-2.283-.419-.653-1.025-1.165-1.794-1.538zm-1.141 8.597c-.513.56-1.189.839-2.074.839-.559 0-1.002-.14-1.328-.42s-.489-.629-.489-1.095c0-.512.186-.908.559-1.234.373-.303.862-.466 1.468-.466h2.446c.103 0 .186.083.186.186 0 .909-.256 1.63-.768 2.19zM131.833 17.523c.886.536 1.934.792 3.146.792.978 0 1.887-.186 2.702-.56.816-.372 1.491-.884 2.004-1.56.455-.58.763-1.25.924-1.996a.239.239 0 0 0-.238-.287h-2.399a.265.265 0 0 0-.249.19 2.336 2.336 0 0 1-.904 1.23c-.489.35-1.072.513-1.724.513-.978 0-1.747-.326-2.283-1.001-.559-.653-.816-1.515-.816-2.587 0-1.048.257-1.91.793-2.586.535-.652 1.281-1.002 2.26-1.002.675 0 1.258.21 1.77.583.452.328.741.747.883 1.225a.267.267 0 0 0 .251.196h2.364a.24.24 0 0 0 .241-.274 4.514 4.514 0 0 0-.873-2.056 5.191 5.191 0 0 0-2.004-1.584 6.523 6.523 0 0 0-2.702-.56c-1.212 0-2.26.28-3.146.816a5.43 5.43 0 0 0-2.097 2.19c-.489.932-.722 1.934-.722 3.052 0 1.119.233 2.144.722 3.076a5.43 5.43 0 0 0 2.097 2.19zM149.81 18.022a.249.249 0 0 0 .204.107h2.854c.203 0 .321-.23.201-.395l-4.759-6.56a.249.249 0 0 1 .029-.325l4.178-4.035a.249.249 0 0 0-.173-.428h-2.919a.249.249 0 0 0-.172.069l-4.004 3.817a.25.25 0 0 1-.421-.18V1.697a.249.249 0 0 0-.326-.237l-2.368.775a.249.249 0 0 0-.171.236V17.88c0 .137.111.249.248.249h2.369a.248.248 0 0 0 .248-.25v-3.536a.25.25 0 0 1 .076-.179l1.112-1.075a.249.249 0 0 1 .377.037zM25.47 17.077 16.91 1.029c-.747-1.4-2.76-1.363-3.456.063l-2.104 4.236c-.255.521-.137.707.075 1.01.17.243.563.262.723.013a.372.372 0 0 1 .65.04L18.3 17.836a2.929 2.929 0 0 0 2.294 1.715l2.911.372c1.567.206 2.71-1.45 1.964-2.846zM14.086 18.183 9.242 4.228c-.538-1.55-2.793-1.483-3.234.096L4.534 9.597c-.167.598-.231.945 0 1.522h.56l2.034 6.5a2.899 2.899 0 0 0 1.78 1.664l3.032 1.01c1.33.443 2.599-.804 2.146-2.11zM.835 8.851l-.82 7.11c-.084.73.194 1.454.746 1.94l2.03 1.79c.696.614 1.776.016 1.627-.899L2.789 8.805C2.604 7.675.966 7.713.835 8.851z"/></g></svg>
