<svg width="72" height="20" viewBox="0 0 72 20" fill="none" xmlns="http://www.w3.org/2000/svg">
<path fill-rule="evenodd" clip-rule="evenodd" d="M43.3 2.0401C43.0067 2.33343 42.86 2.69343 42.86 3.1201C42.86 3.54677 43.0067 3.90676 43.3 4.2001C43.5933 4.49343 43.9533 4.6401 44.38 4.6401C44.8067 4.6401 45.1667 4.49343 45.46 4.2001C45.7533 3.90676 45.9 3.54677 45.9 3.1201C45.9 2.69343 45.7533 2.33343 45.46 2.0401C45.1667 1.74676 44.8067 1.6001 44.38 1.6001C43.9533 1.6001 43.5933 1.74676 43.3 2.0401ZM17.4 15.8201C16.76 16.0068 16.1133 16.1001 15.46 16.1001C14.54 16.1001 13.8367 15.8734 13.35 15.4201C12.8633 14.9668 12.62 14.1868 12.62 13.0801V7.8401H10.72V6.0001H12.62V3.3201H14.78V6.0001H17.42V7.8401H14.78V12.9401C14.78 13.2868 14.8633 13.5501 15.03 13.7301C15.1967 13.9101 15.4733 14.0001 15.86 14.0001C16.1267 14.0001 16.37 13.9868 16.59 13.9601C16.81 13.9334 17.08 13.8934 17.4 13.8401V15.8201ZM2.49001 6.4001C1.79001 6.82677 1.31334 7.41343 1.06001 8.1601L2.80001 9.2601C2.94668 8.70009 3.25334 8.30343 3.72001 8.0701C4.18668 7.83676 4.72667 7.7201 5.34001 7.7201C6.00668 7.7201 6.50334 7.84343 6.83001 8.0901C7.15668 8.33677 7.32001 8.65343 7.32001 9.0401V9.2601C7.32001 9.52677 7.12668 9.6801 6.74001 9.7201L3.96001 10.0001C3.04001 10.0801 2.27668 10.3868 1.67001 10.9201C1.06334 11.4534 0.76001 12.1801 0.76001 13.1001C0.76001 13.5534 0.840009 13.9701 1.00001 14.3501C1.16001 14.7301 1.38334 15.0568 1.67001 15.3301C1.95668 15.6034 2.31001 15.8168 2.73001 15.9701C3.15001 16.1234 3.62001 16.2001 4.14001 16.2001C4.90001 16.2001 5.54334 16.0534 6.07001 15.7601C6.59668 15.4668 7.01334 15.0868 7.32001 14.6201V16.0001H9.48001V9.6601C9.48001 8.36676 9.13668 7.39343 8.45001 6.7401C7.76334 6.08676 6.71335 5.7601 5.30001 5.7601C4.12667 5.7601 3.19001 5.97343 2.49001 6.4001ZM4.44001 11.7401L7.32001 11.3801V11.9601C7.32001 12.2534 7.25668 12.5434 7.13001 12.8301C7.00334 13.1168 6.82668 13.3701 6.60001 13.5901C6.37334 13.8101 6.09334 13.9868 5.76001 14.1201C5.42667 14.2534 5.05335 14.3201 4.64001 14.3201C4.09334 14.3201 3.68334 14.2034 3.41001 13.9701C3.13668 13.7368 3.00001 13.4268 3.00001 13.0401C3.00001 12.7068 3.11668 12.4234 3.35001 12.1901C3.58334 11.9568 3.94667 11.8068 4.44001 11.7401ZM26.52 13.3001C25.9733 13.8868 25.2467 14.1801 24.34 14.1801C23.4467 14.1801 22.7233 13.8934 22.17 13.3201C21.6167 12.7468 21.34 11.9734 21.34 11.0001C21.34 10.0268 21.6167 9.25343 22.17 8.6801C22.7233 8.10676 23.4467 7.8201 24.34 7.8201C25.2467 7.8201 25.9733 8.11343 26.52 8.7001C27.0667 9.28677 27.34 10.0534 27.34 11.0001C27.34 11.9468 27.0667 12.7134 26.52 13.3001ZM19.28 20.0001V6.0001H21.44V7.4201C21.8133 6.91343 22.2833 6.5101 22.85 6.2101C23.4167 5.9101 24.0933 5.7601 24.88 5.7601C25.5333 5.7601 26.1433 5.8801 26.71 6.1201C27.2767 6.3601 27.77 6.70343 28.19 7.1501C28.61 7.59677 28.9433 8.14676 29.19 8.8001C29.4367 9.45343 29.56 10.1868 29.56 11.0001C29.56 11.8268 29.4367 12.5634 29.19 13.2101C28.9433 13.8568 28.61 14.4068 28.19 14.8601C27.77 15.3134 27.2767 15.6568 26.71 15.8901C26.1433 16.1234 25.54 16.2401 24.9 16.2401C24.1 16.2401 23.42 16.0801 22.86 15.7601C22.3 15.4401 21.8267 15.0401 21.44 14.5601V20.0001H19.28ZM31.12 8.8901C30.8533 9.53677 30.72 10.2401 30.72 11.0001C30.72 11.7601 30.8533 12.4634 31.12 13.1101C31.3867 13.7568 31.7567 14.3101 32.23 14.7701C32.7033 15.2301 33.2633 15.5901 33.91 15.8501C34.5567 16.1101 35.26 16.2401 36.02 16.2401C36.78 16.2401 37.4833 16.1101 38.13 15.8501C38.7767 15.5901 39.3367 15.2301 39.81 14.7701C40.2833 14.3101 40.6533 13.7568 40.92 13.1101C41.1867 12.4634 41.32 11.7601 41.32 11.0001C41.32 10.2401 41.1867 9.53677 40.92 8.8901C40.6533 8.24343 40.2833 7.6901 39.81 7.2301C39.3367 6.7701 38.7767 6.4101 38.13 6.1501C37.4833 5.8901 36.78 5.7601 36.02 5.7601C35.26 5.7601 34.5567 5.8901 33.91 6.1501C33.2633 6.4101 32.7033 6.7701 32.23 7.2301C31.7567 7.6901 31.3867 8.24343 31.12 8.8901ZM39.1 11.0001C39.1 10.5334 39.0233 10.1068 38.87 9.7201C38.7167 9.33343 38.5033 9.00343 38.23 8.7301C37.9567 8.45676 37.6333 8.24343 37.26 8.0901C36.8867 7.93676 36.4733 7.8601 36.02 7.8601C35.5667 7.8601 35.1533 7.93676 34.78 8.0901C34.4067 8.24343 34.0833 8.45676 33.81 8.7301C33.5367 9.00343 33.3233 9.33343 33.17 9.7201C33.0167 10.1068 32.94 10.5334 32.94 11.0001C32.94 11.4668 33.0167 11.8934 33.17 12.2801C33.3233 12.6668 33.5367 12.9968 33.81 13.2701C34.0833 13.5434 34.4067 13.7568 34.78 13.9101C35.1533 14.0634 35.5667 14.1401 36.02 14.1401C36.4733 14.1401 36.8867 14.0634 37.26 13.9101C37.6333 13.7568 37.9567 13.5434 38.23 13.2701C38.5033 12.9968 38.7167 12.6668 38.87 12.2801C39.0233 11.8934 39.1 11.4668 39.1 11.0001ZM45.46 16.0001H43.3V6.0001H45.46V16.0001ZM51.66 6.1801C51.1 6.4601 50.6333 6.8601 50.26 7.3801V6.0001H48.16V16.0001H50.32V11.2801C50.32 10.7734 50.3633 10.3068 50.45 9.8801C50.5367 9.45343 50.68 9.08677 50.88 8.7801C51.08 8.47343 51.3433 8.23343 51.67 8.0601C51.9967 7.88676 52.4 7.8001 52.88 7.8001C53.52 7.8001 54.03 8.0001 54.41 8.4001C54.79 8.8001 54.98 9.41343 54.98 10.2401V16.0001H57.18V9.9601C57.18 9.32009 57.1067 8.74343 56.96 8.2301C56.8133 7.71676 56.59 7.27677 56.29 6.9101C55.99 6.54343 55.61 6.2601 55.15 6.0601C54.69 5.8601 54.1533 5.7601 53.54 5.7601C52.8467 5.7601 52.22 5.9001 51.66 6.1801ZM65.1 15.8201C64.46 16.0068 63.8133 16.1001 63.16 16.1001C62.24 16.1001 61.5367 15.8734 61.05 15.4201C60.5633 14.9668 60.32 14.1868 60.32 13.0801V7.8401H58.42V6.0001H60.32V3.3201H62.48V6.0001H65.12V7.8401H62.48V12.9401C62.48 13.2868 62.5633 13.5501 62.73 13.7301C62.8967 13.9101 63.1733 14.0001 63.56 14.0001C63.8267 14.0001 64.07 13.9868 64.29 13.9601C64.51 13.9334 64.78 13.8934 65.1 13.8401V15.8201ZM70.14 13.0401C69.8067 12.7068 69.3933 12.5401 68.9 12.5401C68.4067 12.5401 67.9967 12.7068 67.67 13.0401C67.3433 13.3734 67.18 13.7868 67.18 14.2801C67.18 14.7734 67.3433 15.1834 67.67 15.5101C67.9967 15.8368 68.4067 16.0001 68.9 16.0001C69.3933 16.0001 69.8067 15.8368 70.14 15.5101C70.4733 15.1834 70.64 14.7734 70.64 14.2801C70.64 13.7868 70.4733 13.3734 70.14 13.0401Z" fill="#1C34B4"/>
</svg>
