<svg xmlns="http://www.w3.org/2000/svg" viewBox="0 0 560 160" width="560" height="160"><defs><style>.cls-1,.cls-3{fill:#f3f8ff;stroke-width:0}.cls-3{fill:#fff}</style></defs><g><path d="M0 0h560v160H0z" style="fill:#0e0f14;stroke-width:0"/><path d="M199.98 84.84h-6.51v17.17h-7.19V59.39h15.28c7.49 0 13.21 4.08 13.21 12.72 0 6.57-3.41 10.53-8.22 12.05l8.83 17.84h-7.61l-7.79-17.17Zm.73-6.27c3.84 0 6.88-1.34 6.88-6.46s-3.04-6.45-6.88-6.45h-7.24v12.91h7.24ZM222.67 86.79c0-9.13 5.66-15.83 14.37-15.83s14.37 6.63 14.37 15.83-5.6 15.83-14.37 15.83-14.37-6.69-14.37-15.83Zm21.55 0c0-6.09-2.92-9.13-7.19-9.13s-7.18 3.05-7.18 9.13 3.04 9.13 7.18 9.13 7.19-3.05 7.19-9.13ZM273 84.84h-6.51v17.17h-7.19V59.39h15.28c7.49 0 13.21 4.08 13.21 12.72 0 6.57-3.41 10.53-8.22 12.05L288.4 102h-7.61L273 84.83Zm.73-6.27c3.84 0 6.88-1.34 6.88-6.46s-3.04-6.45-6.88-6.45h-7.24v12.91h7.24ZM303.23 71.57l6.82 23.74 6.82-23.74h7.43l-9.62 30.44h-9.26l-9.62-30.44h7.43ZM333.23 91.3h6.33c0 3.41 2.62 5.48 6.82 5.48 3.77 0 6.76-1.4 6.76-3.96 0-1.52-.79-2.68-4.75-3.35l-5.36-.91c-4.81-.79-9.25-2.8-9.25-8.34 0-5.97 5.84-9.25 12.48-9.25 7.86 0 12.42 4.14 12.42 10.59h-6.33c0-2.92-2.38-4.75-6.09-4.75-3.1 0-5.72 1.46-5.72 3.71 0 2.37 2.44 2.8 5.23 3.29l4.69.79c5.9 1.1 9.43 2.92 9.43 8.34 0 6.21-5.72 9.68-13.51 9.68-8.4 0-13.15-4.81-13.15-11.32ZM374.18 59.39l3.11 30.87 4.26-18.08h3.04l4.26 18.08 3.11-30.87h7.18l-5.42 42.62h-5.66l-5-17.11-4.99 17.11h-5.66l-5.42-42.62h7.18ZM418.66 95.92V77.65h-8.46v-6.09h15.22v24.35h8.4V102h-27.27v-6.09h12.12Zm-2.01-33.73c0-2.68 2.01-4.81 4.75-4.81s4.81 2.13 4.81 4.81-2.13 4.75-4.81 4.75-4.75-2.07-4.75-4.75ZM452.55 95.74V65.67h-8.28V59.4h15.28v36.1h10.16v6.51h-27.27v-6.27h10.11ZM478.89 86.79c0-9.13 4.99-15.83 11.81-15.83 2.62 0 5.97 1.15 8.4 4.2V59.39h7.18v42.62h-5.36l-.98-3.59c-2.86 3.04-5.66 4.2-8.82 4.2-7.24 0-12.24-6.69-12.24-15.83Zm20.21 2.07v-4.14c0-4.56-3.71-6.69-6.27-6.69-5.48 0-6.76 5.96-6.76 8.76s1.28 8.77 6.76 8.77c2.56 0 6.27-2.13 6.27-6.7Z" class="cls-1"/><path d="M109.65 111.41 93.6 95.36l20.33-20.5-13.11-13.11H77.8L64.69 74.86l20.33 20.5-16.05 16.05-18.72-18.56-4.28 4.32L68.99 120l20.32-20.32L109.63 120l23.02-22.83-4.28-4.32-18.72 18.56ZM98.3 67.83l7.05 7.05-16.04 16.17-16.04-16.17 7.05-7.05H98.3ZM58.73 48.6l8.47 8.47 4.3-4.3L58.73 40 45.97 52.77l4.3 4.3 8.46-8.47zM119.89 48.6l8.47 8.47 4.3-4.3L119.89 40l-12.76 12.77 4.3 4.3 8.46-8.47z" class="cls-3"/></g></svg>
