<svg xmlns="http://www.w3.org/2000/svg" width="150" height="24" fill="currentColor" viewBox="0 0 150 24"><path fill="currentColor" d="M13.134 21.075a.836.836 0 0 0 .826-.846.836.836 0 0 0-.826-.846.836.836 0 0 0-.825.846c0 .467.37.846.825.846ZM11.173 21.498a.628.628 0 0 0 0 .88c.241.248.62.248.86 0a.627.627 0 0 0 0-.88.592.592 0 0 0-.86 0ZM9.797 23.366a.39.39 0 0 0 0 .528c.138.141.378.141.516 0a.39.39 0 0 0 0-.528.368.368 0 0 0-.516 0ZM12.171 19.207c.344-.352.344-.881 0-1.198-.344-.353-.86-.353-1.17 0-.344.352-.344.88 0 1.198.31.352.826.352 1.17 0ZM9.59 19.841a.628.628 0 0 0 0 .881c.241.247.62.247.86 0a.628.628 0 0 0 0-.88c-.275-.247-.653-.247-.86 0ZM8.42 22.273c.19 0 .345-.158.345-.352a.348.348 0 0 0-.344-.353.348.348 0 0 0-.344.353c0 .194.154.352.344.352ZM10.623 16.423c-.344-.352-.86-.352-1.17 0-.344.352-.344.881 0 1.198.344.353.86.353 1.17 0 .31-.352.31-.88 0-1.198ZM7.974 18.185a.628.628 0 0 0 0 .881c.24.247.619.247.86 0a.628.628 0 0 0 0-.881.663.663 0 0 0-.86 0ZM6.529 19.982a.39.39 0 0 0 0 .529.368.368 0 0 0 .516 0 .39.39 0 0 0 0-.529c-.172-.14-.379-.14-.516 0ZM9.04 14.802c-.344-.353-.86-.353-1.17 0-.344.352-.344.88 0 1.198.344.352.86.352 1.17 0 .344-.317.344-.846 0-1.198ZM6.356 16.564a.627.627 0 0 0 0 .88c.241.248.62.248.86 0a.627.627 0 0 0 0-.88.592.592 0 0 0-.86 0ZM4.877 18.29a.39.39 0 0 0 0 .53.368.368 0 0 0 .516 0 .39.39 0 0 0 0-.53.368.368 0 0 0-.516 0ZM8.214 4.37c.344-.352.344-.881 0-1.198-.344-.353-.86-.353-1.17 0-.344.352-.344.88 0 1.198a.78.78 0 0 0 1.17 0ZM9.59 2.502a.628.628 0 0 0 0-.88.592.592 0 0 0-.86 0 .628.628 0 0 0 0 .88c.241.247.62.247.86 0ZM10.967.634a.39.39 0 0 0 0-.528.368.368 0 0 0-.516 0 .39.39 0 0 0 0 .528.368.368 0 0 0 .516 0ZM8.593 4.758c-.344.352-.344.88 0 1.198.344.352.86.352 1.17 0 .344-.352.344-.881 0-1.198-.31-.317-.826-.317-1.17 0ZM11.207 4.159a.627.627 0 0 0 0-.881.592.592 0 0 0-.86 0 .627.627 0 0 0 0 .88c.241.247.62.247.86 0ZM12.618 2.326a.39.39 0 0 0 0-.529.368.368 0 0 0-.516 0 .39.39 0 0 0 0 .529.368.368 0 0 0 .516 0ZM10.175 7.577c.345.353.86.353 1.17 0 .344-.352.344-.881 0-1.198-.344-.353-.86-.353-1.17 0-.31.352-.344.88 0 1.198ZM12.79 5.78a.628.628 0 0 0 0-.881.592.592 0 0 0-.86 0 .628.628 0 0 0 0 .88c.275.247.654.247.86 0ZM14.27 4.018a.39.39 0 0 0 0-.529.368.368 0 0 0-.516 0 .39.39 0 0 0 0 .529c.137.14.344.14.516 0ZM11.724 9.198c.344.353.86.353 1.17 0 .344-.352.344-.88 0-1.198-.345-.352-.86-.352-1.17 0-.31.317-.31.846 0 1.198ZM14.407 7.436a.627.627 0 0 0 0-.88.592.592 0 0 0-.86 0 .627.627 0 0 0 0 .88c.24.247.62.247.86 0ZM15.887 5.674a.39.39 0 0 0 0-.529.368.368 0 0 0-.516 0 .39.39 0 0 0 0 .529c.172.141.378.141.516 0Z"/><path fill="currentColor" d="m13.444 8.881-1.996 2.044a1.126 1.126 0 0 0 0-1.55 1.062 1.062 0 0 0-1.513 0 1.125 1.125 0 0 0 0-1.551 1.062 1.062 0 0 0-1.514 0 1.125 1.125 0 0 0 0-1.55 1.062 1.062 0 0 0-1.514 0 1.126 1.126 0 0 0 0-1.552 1.062 1.062 0 0 0-1.514 0l-4.129 4.16a4.479 4.479 0 0 0 0 6.237 4.227 4.227 0 0 0 6.09 0l1.996-2.044a1.126 1.126 0 0 0 0 1.55 1.062 1.062 0 0 0 1.514 0 1.125 1.125 0 0 0 0 1.551c.412.423 1.1.423 1.513 0a1.125 1.125 0 0 0 0 1.55 1.062 1.062 0 0 0 1.514 0 1.126 1.126 0 0 0 0 1.552 1.062 1.062 0 0 0 1.514 0l4.129-4.16a4.48 4.48 0 0 0 0-6.237 4.227 4.227 0 0 0-6.09 0Zm-7.604.493a.368.368 0 0 1-.516 0 .39.39 0 0 1 0-.528.368.368 0 0 1 .516 0c.138.176.138.387 0 .528Zm.62-2.044a.429.429 0 0 1-.62 0 .454.454 0 0 1 0-.634.429.429 0 0 1 .62 0c.172.141.172.458 0 .634Zm.894 3.63a.368.368 0 0 1-.516 0 .39.39 0 0 1 0-.528.368.368 0 0 1 .516 0c.138.14.138.352 0 .528Zm.62-2.079a.429.429 0 0 1-.62 0 .454.454 0 0 1 0-.634.429.429 0 0 1 .62 0 .454.454 0 0 1 0 .634Zm1.513 1.55a.429.429 0 0 1-.619 0 .454.454 0 0 1 0-.634.429.429 0 0 1 .62 0 .454.454 0 0 1 0 .635Zm2.409 3.772a.429.429 0 0 1-.62 0 .454.454 0 0 1 0-.635.429.429 0 0 1 .62 0 .402.402 0 0 1 0 .635Zm1.548 1.55a.429.429 0 0 1-.62 0 .454.454 0 0 1 0-.634.429.429 0 0 1 .62 0 .454.454 0 0 1 0 .634Zm.482-2.185a.368.368 0 0 1-.516 0 .39.39 0 0 1 0-.528.368.368 0 0 1 .516 0 .39.39 0 0 1 0 .528Zm1.032 3.771a.429.429 0 0 1-.62 0 .454.454 0 0 1 0-.634.429.429 0 0 1 .62 0c.172.14.172.423 0 .634Zm.482-2.22a.368.368 0 0 1-.517 0 .39.39 0 0 1 0-.529.368.368 0 0 1 .517 0 .39.39 0 0 1 0 .529ZM34.879 10.396c-3.51-.563-3.785-1.022-3.785-1.585 0-.811 1.101-1.304 2.821-1.304 1.893 0 3.372.88 3.888 2.255.035.07.103.141.207.106l2.993-.846c.034 0 .069-.035.103-.07a.11.11 0 0 0 0-.141c-.723-2.573-3.75-4.441-7.19-4.441-3.785 0-6.297 1.797-6.297 4.476 0 2.572 1.858 3.841 6.881 4.617 2.615.387 3.544.81 3.544 1.691 0 .81-1.273 1.34-3.303 1.34-2.34 0-3.819-.952-4.3-2.82-.035-.106-.104-.141-.207-.141l-3.097.74c-.103.035-.137.106-.137.212.62 3.136 3.647 5.145 7.741 5.145 4.094 0 6.812-1.797 6.812-4.476-.034-2.643-1.892-3.982-6.674-4.758ZM81.567 4.37c-1.445.035-3.475.6-4.507 2.08-.035 0-.035-.036-.035-.036V4.97c0-.106-.068-.176-.172-.176h-3.165c-.103 0-.172.07-.172.176v14.097c0 .106.069.176.172.176h3.269c.103 0 .172-.07.172-.176v-7.683c0-2.15 1.582-3.594 3.922-3.594 2.27 0 3.612 1.339 3.612 3.594v7.718c0 .106.07.177.172.177h3.27c.102 0 .171-.07.171-.177V10.89c0-1.797-.62-3.419-1.72-4.546-1.204-1.304-3.062-2.01-4.989-1.974ZM118.037 4.37c-4.473 0-7.81 3.278-7.81 7.612 0 4.335 3.372 7.613 7.81 7.613 2.202 0 4.197-.776 5.608-2.185 1.411-1.41 2.202-3.313 2.202-5.428 0-4.334-3.372-7.612-7.81-7.612Zm0 11.912c-2.477 0-4.198-1.762-4.198-4.3 0-2.537 1.721-4.3 4.198-4.3 2.477 0 4.197 1.763 4.197 4.3 0 2.538-1.754 4.3-4.197 4.3ZM143.738 4.37c-1.824 0-3.441.705-4.576 1.974-.963-1.199-2.753-1.974-4.438-1.974-1.652 0-3.441.916-4.026 2.115h-.034l-.035-.036V4.97c0-.106-.068-.176-.172-.176h-2.959c-.103 0-.172.07-.172.176v14.097c0 .106.069.176.172.176h3.2c.103 0 .172-.07.172-.176v-8.07c0-1.974 1.239-3.278 3.097-3.278 1.789 0 2.993 1.34 2.993 3.278v8.07c0 .106.069.176.172.176h3.097c.103 0 .172-.07.172-.176v-8.07c0-2.01 1.169-3.278 3.062-3.278 1.858 0 3.027 1.269 3.027 3.278v8.07c0 .106.069.176.172.176h3.166c.103 0 .172-.07.172-.176v-8.74c.034-3.489-2.546-5.956-6.262-5.956ZM92.026 19.419c1.197 0 2.168-.995 2.168-2.22 0-1.227-.97-2.221-2.168-2.221-1.197 0-2.167.994-2.167 2.22 0 1.226.97 2.22 2.167 2.22ZM57.07 14.344l-3.062-.881c-.103-.036-.172.035-.206.105-.585 1.762-1.858 2.714-3.75 2.714-2.374 0-4.026-1.762-4.026-4.3 0-2.537 1.652-4.3 4.026-4.3 1.651 0 2.959.811 3.578 2.292.034.07.137.14.206.105l3.097-.951c.103-.035.137-.141.103-.247-.998-2.784-3.681-4.546-6.984-4.546-4.37 0-7.673 3.277-7.673 7.612s3.303 7.613 7.673 7.613c3.509 0 6.33-1.974 7.156-5.04a.212.212 0 0 0-.138-.176ZM65.087 4.37c-3.372 0-6.09 1.833-6.847 4.546-.034.106.034.177.103.212l3.062.951c.103.035.172-.035.207-.105.481-1.516 1.754-2.397 3.51-2.397 1.582 0 2.545.6 2.545 1.516 0 .493-.24.986-3.268 1.41-4.404.669-6.193 2.043-6.193 4.757 0 2.643 2.064 4.37 5.298 4.37 1.755 0 3.544-.705 4.61-1.868v1.269c0 .106.07.176.172.176h2.994c.103 0 .172-.07.172-.176V9.762c.034-3.313-2.409-5.392-6.365-5.392Zm2.89 9.516c0 1.374-1.79 2.502-3.957 2.502-2.305 0-2.305-.952-2.305-1.34 0-.88.894-1.374 3.269-1.797 1.617-.282 2.442-.564 2.924-.916h.069s.034 0 .034.035v1.516h-.034ZM109.195 14.344l-3.062-.881c-.104-.036-.173.035-.207.105-.585 1.762-1.858 2.714-3.75 2.714-2.374 0-4.026-1.762-4.026-4.3 0-2.537 1.652-4.3 4.026-4.3 1.651 0 2.959.811 3.578 2.292.034.07.138.14.206.105l3.097-.951c.103-.035.138-.141.103-.247-.998-2.784-3.681-4.546-6.984-4.546-4.37 0-7.673 3.277-7.673 7.612s3.303 7.613 7.673 7.613c3.509 0 6.33-1.974 7.156-5.04a.212.212 0 0 0-.137-.176Z"/></svg>
