<?xml version="1.0" encoding="UTF-8"?>
<svg id="Layer_1" data-name="Layer 1" xmlns="http://www.w3.org/2000/svg" viewBox="0 0 763.53 757.29">
  <defs>
    <style>
      .cls-1 {
        fill-rule: evenodd;
      }

      .cls-1, .cls-2, .cls-3 {
        stroke-width: 0px;
      }

      .cls-1, .cls-3 {
        fill: #fff;
      }

      .cls-2 {
        fill: #1e1f4e;
      }
    </style>
  </defs>
  <ellipse class="cls-2" cx="381.76" cy="378.65" rx="381.76" ry="378.65"/>
  <g>
    <g id="SvgjsG1964">
      <path class="cls-1" d="m561.28,416.93h-1.93l-15.44-23.16-108.85-163.28,25.83-38.76c1.78-2.66,1.05-6.25-1.61-8.03-2.66-1.78-6.25-1.05-8.03,1.61l-23.16,34.74-16.2-24.3,25.83-38.76c1.77-2.66,1.05-6.25-1.61-8.03-2.66-1.77-6.25-1.05-8.03,1.61l-23.16,34.74-16.2-24.3,25.84-38.76c1.78-2.66,1.05-6.25-1.61-8.03-2.66-1.77-6.25-1.05-8.03,1.61l-23.16,34.74-23.16-34.74c-1.78-2.66-5.37-3.37-8.03-1.61-2.66,1.78-3.38,5.37-1.61,8.03l25.84,38.76-155.18,232.77-15.44,23.16h-1.93c-3.2,0-5.79,2.59-5.79,5.79s2.59,5.79,5.79,5.79h359.02c3.2,0,5.79-2.59,5.79-5.79s-2.59-5.79-5.79-5.79Zm-310.77,0h-32.4l11.1-16.65.06-.09,152.5-228.76,16.2,24.31-147.45,221.19Zm46.33,0h-32.41l88.06-132.1,52.43-78.65,16.2,24.31-124.29,186.44Zm84.93,0h-71.01l64.9-97.36,52.43-78.65,106.18,159.27.06.09,11.1,16.65h-163.66Z"/>
    </g>
    <g id="SvgjsG1965">
      <path class="cls-3" d="m160.75,573.22c-1.1,1.1-2.3,2.27-3.62,3.53-1.32,1.26-2.77,2.44-4.35,3.53s-3.29,2-5.12,2.71c-1.83.71-3.8,1.07-5.91,1.07-5.52,0-10.61-1.04-15.25-3.11-4.65-2.07-8.65-4.9-12-8.49-3.35-3.59-5.97-7.82-7.86-12.7-1.89-4.87-2.83-10.11-2.83-15.71,0-5.64.94-10.89,2.83-15.74,1.89-4.85,4.51-9.07,7.86-12.67s7.35-6.41,12-8.46c4.65-2.05,9.73-3.08,15.25-3.08,2.23,0,4.27.32,6.12.97,1.85.65,3.53,1.48,5.05,2.5,1.52,1.01,2.92,2.16,4.2,3.44,1.28,1.28,2.49,2.53,3.62,3.75v-27.83c0-1.3.4-2.4,1.19-3.29.79-.89,1.98-1.34,3.56-1.34h13.7c.53,0,1.09.11,1.67.33s1.13.54,1.61.94c.49.41.88.89,1.19,1.46.3.57.46,1.2.46,1.89v91.04c0,3.13-1.64,4.69-4.93,4.69h-11.94c-.81,0-1.44-.1-1.89-.3s-.82-.5-1.13-.88c-.3-.39-.58-.87-.82-1.46s-.55-1.27-.91-2.04l-1.77-4.75Zm-35.01-29.17c0,2.68.42,5.19,1.25,7.52.83,2.33,2.02,4.35,3.56,6.06,1.54,1.71,3.4,3.05,5.57,4.05,2.17.99,4.58,1.49,7.22,1.49s5.04-.47,7.34-1.4c2.29-.93,4.29-2.22,6-3.87s3.08-3.58,4.11-5.82c1.04-2.23,1.61-4.63,1.74-7.19v-.85c0-2.6-.49-5.07-1.46-7.43-.97-2.35-2.32-4.43-4.05-6.21-1.73-1.79-3.76-3.2-6.09-4.23-2.33-1.04-4.86-1.55-7.58-1.55-2.64,0-5.04.52-7.22,1.55-2.17,1.04-4.03,2.45-5.57,4.23-1.54,1.79-2.73,3.86-3.56,6.21-.83,2.35-1.25,4.83-1.25,7.43h0Zm139.39,29.35c-3.57,3.29-7.59,5.86-12.06,7.7s-9.2,2.77-14.19,2.77c-5.56,0-10.82-1.01-15.77-3.04-4.95-2.03-9.3-4.84-13.03-8.43-3.73-3.59-6.7-7.82-8.89-12.7s-3.29-10.17-3.29-15.89c0-3.57.44-7.03,1.31-10.38.87-3.35,2.11-6.49,3.71-9.41,1.6-2.92,3.55-5.61,5.85-8.07s4.86-4.56,7.7-6.3c2.84-1.75,5.93-3.11,9.26-4.08,3.33-.97,6.84-1.46,10.53-1.46,3.37,0,6.64.45,9.8,1.34,3.17.89,6.14,2.15,8.92,3.78,2.78,1.62,5.33,3.57,7.64,5.85,2.31,2.27,4.3,4.76,5.97,7.46,1.66,2.7,2.95,5.58,3.87,8.65.91,3.07,1.37,6.22,1.37,9.47,0,2.11-.03,3.84-.09,5.18-.06,1.34-.38,2.41-.94,3.2-.57.79-1.51,1.34-2.83,1.64-1.32.3-3.26.46-5.82.46h-43.84c.41,2.6,1.23,4.77,2.47,6.52,1.24,1.75,2.67,3.14,4.29,4.17s3.35,1.78,5.18,2.22c1.83.45,3.55.67,5.18.67,1.46,0,2.96-.15,4.51-.46,1.54-.3,3.03-.71,4.48-1.22,1.44-.51,2.76-1.1,3.96-1.77,1.2-.67,2.16-1.37,2.89-2.1.65-.53,1.21-.92,1.67-1.19s.96-.4,1.49-.4c.53,0,1.07.18,1.61.55.55.37,1.17.89,1.86,1.58l6.45,7.31c.45.53.73,1,.85,1.43.12.43.18.86.18,1.31,0,.81-.22,1.51-.67,2.1-.45.59-.97,1.11-1.58,1.55Zm-29.29-50.73c-1.58,0-3.12.31-4.6.94-1.48.63-2.87,1.47-4.17,2.53-1.3,1.06-2.47,2.25-3.5,3.59-1.04,1.34-1.88,2.7-2.53,4.08h31.12c-.85-1.58-1.78-3.04-2.77-4.38-.99-1.34-2.13-2.52-3.41-3.53-1.28-1.01-2.74-1.81-4.38-2.37s-3.56-.85-5.75-.85h0Zm52.31-16.62c.53-.45,1.08-.73,1.64-.85.57-.12,1.12-.18,1.64-.18h9.2c.77,0,1.41.12,1.92.37s.92.58,1.25,1c.32.43.6.91.82,1.46.22.55.44,1.15.64,1.8l2.56,7.37c1.14-1.46,2.28-2.95,3.44-4.48,1.16-1.52,2.53-2.9,4.11-4.14,1.58-1.24,3.47-2.26,5.66-3.08,2.19-.81,4.87-1.22,8.04-1.22,5.56,0,10.69,1.03,15.38,3.08,4.69,2.05,8.73,4.87,12.12,8.46,3.39,3.59,6.04,7.81,7.95,12.67,1.91,4.85,2.86,10.1,2.86,15.74s-.95,10.84-2.86,15.71c-1.91,4.87-4.56,9.1-7.95,12.7-3.39,3.59-7.43,6.42-12.12,8.49-4.69,2.07-9.81,3.11-15.38,3.11-2.64,0-4.91-.31-6.82-.94s-3.6-1.45-5.08-2.47c-1.48-1.01-2.79-2.13-3.93-3.35-1.14-1.22-2.25-2.44-3.35-3.65v28.38c0,1.22-.37,2.25-1.1,3.11-.73.85-1.87,1.28-3.41,1.28h-13.94c-.49,0-1.01-.1-1.58-.3-.57-.2-1.1-.49-1.58-.85-.49-.37-.89-.82-1.22-1.37s-.49-1.17-.49-1.86v-92.5c0-.81.15-1.48.46-2.01.3-.53.68-1.01,1.13-1.46h0Zm56.88,38c0-2.6-.43-5.06-1.28-7.4s-2.05-4.37-3.59-6.12-3.39-3.13-5.54-4.14c-2.15-1.01-4.53-1.52-7.12-1.52s-4.98.48-7.28,1.43c-2.29.95-4.3,2.25-6.03,3.9s-3.13,3.58-4.2,5.82c-1.08,2.23-1.67,4.61-1.8,7.12v.91c0,2.68.51,5.2,1.52,7.55,1.01,2.35,2.4,4.39,4.14,6.12s3.8,3.1,6.15,4.11c2.35,1.01,4.85,1.52,7.49,1.52s4.97-.51,7.12-1.52,4-2.39,5.54-4.11c1.54-1.73,2.74-3.77,3.59-6.12s1.28-4.87,1.28-7.55h0Zm34.53-57.06c0-1.3.32-2.4.97-3.29s1.77-1.34,3.35-1.34h14.92c.41,0,.83.11,1.28.33s.86.54,1.25.94c.39.41.71.89.97,1.46.26.57.4,1.2.4,1.89v90.98c0,1.54-.44,2.71-1.31,3.5s-2,1.19-3.38,1.19h-14.13c-1.58,0-2.7-.4-3.35-1.19s-.97-1.96-.97-3.5v-90.98Zm35.38,57.06c0-3.73.48-7.33,1.43-10.78s2.29-6.65,4.02-9.59c1.73-2.94,3.8-5.62,6.21-8.04,2.42-2.42,5.11-4.48,8.07-6.18,2.96-1.71,6.16-3.02,9.59-3.96,3.43-.93,7.01-1.4,10.75-1.4,5.52,0,10.71,1.03,15.56,3.08,4.85,2.05,9.07,4.87,12.67,8.46,3.59,3.59,6.43,7.81,8.53,12.67s3.14,10.1,3.14,15.74c0,3.73-.48,7.32-1.43,10.75s-2.29,6.63-4.02,9.59c-1.73,2.96-3.8,5.65-6.21,8.07-2.42,2.42-5.1,4.49-8.07,6.21-2.96,1.73-6.14,3.05-9.53,3.99-3.39.93-6.93,1.4-10.63,1.4-3.73,0-7.32-.47-10.75-1.4-3.43-.93-6.63-2.26-9.59-3.99-2.96-1.73-5.65-3.8-8.07-6.21-2.42-2.42-4.49-5.1-6.21-8.07-1.73-2.96-3.07-6.16-4.02-9.59-.95-3.43-1.43-7.01-1.43-10.75Zm22.23,0c0,2.68.42,5.19,1.25,7.52.83,2.33,2.01,4.35,3.53,6.06,1.52,1.71,3.37,3.05,5.54,4.05,2.17.99,4.62,1.49,7.34,1.49s5.02-.5,7.16-1.49c2.13-.99,3.94-2.34,5.42-4.05s2.62-3.72,3.41-6.06c.79-2.33,1.19-4.84,1.19-7.52s-.4-5.07-1.19-7.43c-.79-2.35-1.93-4.43-3.41-6.21-1.48-1.79-3.29-3.2-5.42-4.23-2.13-1.04-4.52-1.55-7.16-1.55-2.72,0-5.17.52-7.34,1.55-2.17,1.04-4.02,2.45-5.54,4.23s-2.7,3.86-3.53,6.21-1.25,4.83-1.25,7.43h0Zm70.82,21.07c0-.81.22-1.46.67-1.95.45-.49,1.12-.73,2.01-.73h16.08c.69,0,1.33.24,1.92.73.59.49.88,1.14.88,1.95v14.74c0,.73-.23,1.38-.7,1.95s-1.17.85-2.1.85h-16.08c-1.79,0-2.68-.93-2.68-2.8v-14.74Zm36.17-55.05c0-1.3.37-2.42,1.1-3.35.73-.93,1.87-1.4,3.41-1.4h13.94c.49,0,1.01.11,1.58.33.57.22,1.1.55,1.58.97s.9.92,1.25,1.49.52,1.22.52,1.95v67.9c0,1.54-.43,2.71-1.28,3.5s-2.07,1.19-3.65,1.19h-13.94c-3,0-4.51-1.56-4.51-4.69v-67.9h0Zm0-30.81c0-1.71.37-2.91,1.1-3.62.73-.71,1.87-1.07,3.41-1.07h14.13c1.42,0,2.57.36,3.44,1.07.87.71,1.31,1.92,1.31,3.62v11.87c0,.49-.11,1.01-.33,1.58s-.54,1.12-.94,1.64c-.41.53-.9.96-1.49,1.31-.59.35-1.25.52-1.98.52h-14.13c-3,0-4.51-1.68-4.51-5.05v-11.87h0Zm35.62,64.79c0-3.73.48-7.33,1.43-10.78.95-3.45,2.29-6.65,4.02-9.59,1.73-2.94,3.8-5.62,6.21-8.04,2.42-2.42,5.1-4.48,8.07-6.18,2.96-1.71,6.16-3.02,9.59-3.96,3.43-.93,7.01-1.4,10.75-1.4,5.52,0,10.71,1.03,15.56,3.08,4.85,2.05,9.07,4.87,12.67,8.46,3.59,3.59,6.43,7.81,8.53,12.67,2.09,4.85,3.14,10.1,3.14,15.74,0,3.73-.48,7.32-1.43,10.75-.95,3.43-2.29,6.63-4.02,9.59-1.73,2.96-3.8,5.65-6.21,8.07-2.42,2.42-5.1,4.49-8.07,6.21-2.96,1.73-6.14,3.05-9.53,3.99-3.39.93-6.93,1.4-10.63,1.4-3.73,0-7.32-.47-10.75-1.4-3.43-.93-6.63-2.26-9.59-3.99s-5.65-3.8-8.07-6.21c-2.42-2.42-4.49-5.1-6.21-8.07-1.73-2.96-3.06-6.16-4.02-9.59-.95-3.43-1.43-7.01-1.43-10.75Zm22.23,0c0,2.68.42,5.19,1.25,7.52.83,2.33,2.01,4.35,3.53,6.06,1.52,1.71,3.37,3.05,5.54,4.05,2.17.99,4.62,1.49,7.34,1.49s5.02-.5,7.16-1.49c2.13-.99,3.94-2.34,5.42-4.05,1.48-1.71,2.62-3.72,3.41-6.06s1.19-4.84,1.19-7.52-.4-5.07-1.19-7.43c-.79-2.35-1.93-4.43-3.41-6.21-1.48-1.79-3.29-3.2-5.42-4.23-2.13-1.04-4.52-1.55-7.16-1.55-2.72,0-5.17.52-7.34,1.55-2.17,1.04-4.02,2.45-5.54,4.23-1.52,1.79-2.7,3.86-3.53,6.21-.83,2.35-1.25,4.83-1.25,7.43h0Z"/>
    </g>
  </g>
</svg>