<?xml version="1.0" encoding="UTF-8"?><svg xmlns="http://www.w3.org/2000/svg" width="200" height="71" viewBox="0 0 1673.73 595.92"><defs><style>.cls-1{fill:#fff;}.cls-2{fill:#d60078;}</style></defs><path class="cls-2" d="m1616.48,339.71c-1.44-14.87-2.79-28.92-2.79-42.21,0-13.3,1.38-27.43,2.83-42.4,1.64-16.95,3.35-34.47,3.35-53.16,0-51.99-42.29-94.28-94.28-94.28-20.87,0-40.18,6.82-55.82,18.35-23.87-11.76-50.56-18.35-78.7-18.35-59.18,0-111.91,29.11-145.54,74.22-11.12-20.54-25.28-39.6-42.27-56.58-46.08-46.08-107.34-71.45-172.5-71.45s-126.42,25.38-172.5,71.45c-17.22,17.22-31.54,36.55-42.73,57.42-34.77-45.59-89.63-75.06-151.25-75.06s-116.48,29.47-151.25,75.05c-11.19-20.86-25.51-40.2-42.73-57.41-46.08-46.08-107.34-71.45-172.5-71.45s-126.42,25.38-172.5,71.45c-46.08,46.08-71.45,107.34-71.45,172.5s25.38,126.42,71.45,172.5c46.08,46.08,107.34,71.45,172.5,71.45,34.83,0,68.54-7.26,99.42-21.04,15.89,13.8,35.98,21.35,57.23,21.35,23.36,0,45.33-9.1,61.85-25.62,20.14-20.14,28.37-47.73,24.73-73.98,33.22,28.34,76.27,45.48,123.25,45.48,61.63,0,116.49-29.48,151.25-75.06,11.19,20.87,25.52,40.2,42.73,57.42,46.08,46.08,107.34,71.45,172.5,71.45,34.83,0,68.54-7.26,99.42-21.04,15.89,13.8,35.98,21.35,57.23,21.35,23.36,0,45.33-9.1,61.85-25.62,19.63-19.63,27.94-46.35,24.97-72,31.78,27.16,72.5,43.5,116.84,43.5,28.15,0,54.83-6.59,78.7-18.35,15.64,11.53,34.95,18.35,55.82,18.35,51.99,0,94.28-42.29,94.28-94.28v-2.51l-.06-.64c-.15-17.93-1.76-34.64-3.33-50.81Z"/><path class="cls-1" d="m664.28,161.52c-75.27,0-136.28,61.02-136.28,136.28s61.02,136.28,136.28,136.28,136.28-61.02,136.28-136.28-61.02-136.28-136.28-136.28Zm0,184.59c-26.68,0-48.31-21.63-48.31-48.31s21.63-48.31,48.31-48.31,48.31,21.63,48.31,48.31-21.63,48.31-48.31,48.31Z"/><path class="cls-1" d="m1186.76,406.43c21.48-30.79,34.09-68.23,34.09-108.62,0-104.98-85.11-190.09-190.09-190.09s-190.09,85.11-190.09,190.09,85.11,190.09,190.09,190.09c40.32,0,77.69-12.56,108.45-33.97l24.43,24.43c13.12,13.12,34.4,13.12,47.53,0h0c13.12-13.12,13.12-34.4,0-47.53l-24.41-24.41Zm-228.2-108.62c0-40.04,32.46-72.5,72.5-72.5s72.5,32.46,72.5,72.5c0,7.68-1.2,15.07-3.41,22.02l-21.96-21.96c-13.12-13.12-34.4-13.12-47.53,0h0c-13.12,13.12-13.12,34.4,0,47.53l21.72,21.72c-6.74,2.07-13.91,3.19-21.33,3.19-40.04,0-72.5-32.46-72.5-72.5Z"/><path class="cls-1" d="m1566.01,201.95c0-22.33-18.1-40.42-40.42-40.42h0c-22.33,0-40.42,18.1-40.42,40.42v1.93c-23.66-26.09-57.07-42.35-94.1-42.35-71.73,0-129.88,61.02-129.88,136.28s58.15,136.28,129.88,136.28c37.03,0,70.44-16.26,94.1-42.35v1.93c0,22.33,18.1,40.42,40.42,40.42h0c22.33,0,40.42-18.1,40.42-40.42l-.05-.52c0-32.54-6.14-63.74-6.13-95.66.01-31.88,6.18-63.46,6.18-95.54h0Zm-170.55,144.17c-26.68,0-48.31-21.63-48.31-48.31s21.63-48.31,48.31-48.31,48.31,21.63,48.31,48.31-21.63,48.31-48.31,48.31Z"/><path class="cls-1" d="m453.81,406.43c21.48-30.79,34.09-68.23,34.09-108.62,0-104.98-85.11-190.09-190.09-190.09s-190.09,85.11-190.09,190.09,85.11,190.09,190.09,190.09c40.32,0,77.69-12.56,108.45-33.97l24.43,24.43c13.12,13.12,34.4,13.12,47.53,0h0c13.12-13.12,13.12-34.4,0-47.53l-24.41-24.41Zm-86.84-86.84l-21.73-21.73c-13.12-13.12-34.4-13.12-47.53,0h0c-13.12,13.12-13.12,34.4,0,47.53l21.65,21.65c-6.81,2.12-14.06,3.26-21.57,3.26-40.04,0-72.5-32.46-72.5-72.5s32.46-72.5,72.5-72.5,72.5,32.46,72.5,72.5c0,7.59-1.17,14.91-3.34,21.79Z"/></svg>
