<svg id="logo" xmlns="http://www.w3.org/2000/svg" viewBox="0 0 223.99 54.95" width="223.99" height="54.95"><defs><style>.cls-1{fill:#e03131;}.cls-2{fill:#fff;fill-rule:evenodd;}</style></defs><g id="wordmark"><path class="cls-1" d="M95.46,35.46H91.75V26.7A6.38,6.38,0,0,0,91,23.13,3.05,3.05,0,0,0,88.31,22a4.07,4.07,0,0,0-3.45,1.6V35.46H81.15V10.88h3.71v9.44a5.78,5.78,0,0,1,3.81-1.45q6.8,0,6.79,7.84v8.75Zm2.66-8.13A9.63,9.63,0,0,1,98.69,24a7.82,7.82,0,0,1,1.64-2.69,7.67,7.67,0,0,1,2.59-1.78,8.49,8.49,0,0,1,3.4-.66,8.35,8.35,0,0,1,3.38.66,7.68,7.68,0,0,1,2.58,1.8A8.2,8.2,0,0,1,113.93,24a9,9,0,0,1,.59,3.31,9.47,9.47,0,0,1-.57,3.31,8.28,8.28,0,0,1-1.64,2.69,7.72,7.72,0,0,1-2.59,1.8,8.66,8.66,0,0,1-3.4.65,8.57,8.57,0,0,1-3.41-.65,7.64,7.64,0,0,1-4.22-4.46,9.52,9.52,0,0,1-.58-3.34Zm3.8,0a6,6,0,0,0,1.17,3.9,4.35,4.35,0,0,0,6.47,0,6.06,6.06,0,0,0,1.16-3.9,6,6,0,0,0-1.16-3.88,4.37,4.37,0,0,0-6.47,0,5.93,5.93,0,0,0-1.17,3.88Zm29.37,8.13h-3.41l-.16-1.22a5.52,5.52,0,0,1-3.91,1.54q-6.63,0-6.63-7.63v-9h3.71v8.71a6.24,6.24,0,0,0,.82,3.59,3,3,0,0,0,2.59,1.14,3.86,3.86,0,0,0,3.29-1.51V19.17h3.7V35.46Zm10.13,8.19a13,13,0,0,1-3.35-.39,7.67,7.67,0,0,1-2.39-1.07,4.79,4.79,0,0,1-1.45-1.54,3.79,3.79,0,0,1-.49-1.85q0-2.4,2.76-3.64a2.42,2.42,0,0,1,.16-4.56,6,6,0,0,1-2.59-5.27,7,7,0,0,1,.46-2.57,5.73,5.73,0,0,1,1.31-2.05,6.18,6.18,0,0,1,2.09-1.35,7.55,7.55,0,0,1,2.77-.49,7,7,0,0,1,3.84,1.05,8,8,0,0,1,3.64-.79H149l-.29,2.39h-1.25a9.94,9.94,0,0,0-1.25.1,6.13,6.13,0,0,1,1.15,3.67,7,7,0,0,1-.44,2.48,5.87,5.87,0,0,1-1.3,2.05,6.08,6.08,0,0,1-2.08,1.39,7.21,7.21,0,0,1-2.78.51,8.27,8.27,0,0,1-1.9-.2.77.77,0,0,0-.49.66.64.64,0,0,0,.21.49,2,2,0,0,0,.71.36,9.9,9.9,0,0,0,1.33.31c.55.1,1.26.2,2.11.31s1.47.25,2.23.43a8.07,8.07,0,0,1,2.1.78,4.78,4.78,0,0,1,1.58,1.38,3.91,3.91,0,0,1,.69,2.2,4.39,4.39,0,0,1-2.07,3.78,10.22,10.22,0,0,1-5.84,1.43Zm-.72-22a3,3,0,0,0-2.41,1,4,4,0,0,0-.84,2.66A3.89,3.89,0,0,0,138.3,28a3,3,0,0,0,2.43,1,3,3,0,0,0,2.41-1,4,4,0,0,0,.84-2.68,3.87,3.87,0,0,0-.86-2.64,3.06,3.06,0,0,0-2.42-1Zm.88,14.72-2.26-.33a4.17,4.17,0,0,0-1.71,1A2,2,0,0,0,137,38.5a2,2,0,0,0,1.15,1.79,6.34,6.34,0,0,0,3.21.67,7.19,7.19,0,0,0,3.33-.66,1.92,1.92,0,0,0,1.27-1.7,1.54,1.54,0,0,0-1.12-1.43,13.8,13.8,0,0,0-3.22-.77Zm45.73-.63a6.31,6.31,0,0,1-4.33-1.6l-.13,1.28h-3.44V10.88h3.71v9.4a6.13,6.13,0,0,1,4.2-1.41,7.61,7.61,0,0,1,3.21.66A7.14,7.14,0,0,1,193,21.31,8.1,8.1,0,0,1,194.57,24a10.3,10.3,0,0,1,0,6.64A7.94,7.94,0,0,1,193,33.32a7.28,7.28,0,0,1-2.46,1.81,7.94,7.94,0,0,1-3.26.65ZM187,22a3.57,3.57,0,0,0-3,1.41,6.28,6.28,0,0,0-1.08,3.9,6.34,6.34,0,0,0,1.08,4,3.57,3.57,0,0,0,3,1.39,3.74,3.74,0,0,0,3.13-1.49,6.07,6.07,0,0,0,1.17-3.85,6.11,6.11,0,0,0-1.15-3.84A3.79,3.79,0,0,0,187,22ZM165.27,35.46h-3.71V26.7a6.29,6.29,0,0,0-.79-3.57A3,3,0,0,0,158.11,22a4,4,0,0,0-3.44,1.6V35.46H151V10.88h3.7v9.44a5.78,5.78,0,0,1,3.81-1.45q6.79,0,6.79,7.84v8.75Zm11.37-2.72-.33,3h-2.82a5.1,5.1,0,0,1-1.91-.32,4,4,0,0,1-1.36-.89,3.46,3.46,0,0,1-.8-1.31,4.82,4.82,0,0,1-.27-1.64V22.18h-2.46l.33-3h2.14V14.32l3.7-.39v5.24h3.81v3h-3.81v7.74a13.12,13.12,0,0,0,.07,1.59,1.3,1.3,0,0,0,.33.83,1.27,1.27,0,0,0,.82.33,12.32,12.32,0,0,0,1.54.07Zm20.47-5.41a9.63,9.63,0,0,1,.57-3.33,7.82,7.82,0,0,1,1.64-2.69,7.71,7.71,0,0,1,2.6-1.78,8.44,8.44,0,0,1,3.39-.66,8.32,8.32,0,0,1,3.38.66,7.68,7.68,0,0,1,2.58,1.8A8.39,8.39,0,0,1,212.93,24a9.66,9.66,0,0,1,0,6.62,8.11,8.11,0,0,1-1.64,2.69,7.62,7.62,0,0,1-2.59,1.8,9.24,9.24,0,0,1-6.81,0,7.86,7.86,0,0,1-2.57-1.79,7.73,7.73,0,0,1-1.64-2.67,9.3,9.3,0,0,1-.58-3.34Zm3.8,0a6,6,0,0,0,1.17,3.9,4.34,4.34,0,0,0,6.46,0,6,6,0,0,0,1.17-3.9,5.93,5.93,0,0,0-1.17-3.88,4.36,4.36,0,0,0-6.46,0,5.93,5.93,0,0,0-1.17,3.88Zm23,5.41-.33,3H220.8a5.08,5.08,0,0,1-1.9-.32,3.87,3.87,0,0,1-1.36-.89,3.46,3.46,0,0,1-.8-1.31,4.82,4.82,0,0,1-.27-1.64V22.18H214l.33-3h2.13V14.32l3.71-.39v5.24H224v3h-3.81v7.74a13.12,13.12,0,0,0,.07,1.59,1.3,1.3,0,0,0,.33.83,1.27,1.27,0,0,0,.82.33,12.32,12.32,0,0,0,1.54.07h1Zm-145.45,0-.33,3H75.35a5.1,5.1,0,0,1-1.91-.32,4,4,0,0,1-1.36-.89,3.46,3.46,0,0,1-.8-1.31A4.82,4.82,0,0,1,71,31.62V22.18H68.55l.33-3H71V14.32l3.71-.39v5.24h3.81v3H74.72v7.74a13.12,13.12,0,0,0,.07,1.59,1.3,1.3,0,0,0,.33.83,1.27,1.27,0,0,0,.82.33,12.32,12.32,0,0,0,1.54.07h1"/></g><g id="icon"><path id="circle" class="cls-1" d="M27.47,55A27.48,27.48,0,1,0,0,27.47,27.48,27.48,0,0,0,27.47,55Z"/><g id="ralph"><path class="cls-2" d="M27.84,6.37a8.81,8.81,0,0,1,6.42,2.48l.68-1a10.05,10.05,0,0,0-7.1-2.7,10,10,0,0,0-7.11,2.71l.67,1A8.85,8.85,0,0,1,27.84,6.37Zm4.48,3.79a7.27,7.27,0,0,0-4.41-1.39h0a7.27,7.27,0,0,0-4.41,1.39,4.71,4.71,0,0,0-.73.68l-.69-1a8.12,8.12,0,0,1,5.83-2.26,8.13,8.13,0,0,1,5.73,2.17l-.68,1A6.07,6.07,0,0,0,32.32,10.16Zm-4.48,1.12a5.49,5.49,0,0,1,3.79,1.4l.68-1a6.67,6.67,0,0,0-4.47-1.6,6.66,6.66,0,0,0-4.48,1.6l.68,1A5.45,5.45,0,0,1,27.84,11.28ZM19.49,29.6v7.9a2.69,2.69,0,0,1,.62,1.64,2.56,2.56,0,0,1-.89,1.94l-.68-.69a1.57,1.57,0,0,0,.61-1.25,1.54,1.54,0,1,0-2.47,1.25l-.67.68a2.54,2.54,0,0,1-.9-1.93,2.48,2.48,0,0,1,.57-1.64V25.24a.94.94,0,0,1,.89-.86H38.72a.93.93,0,0,1,.89.85V37.51a2.82,2.82,0,0,1,.57,1.63,2.58,2.58,0,0,1-.89,1.94l-.68-.69a1.6,1.6,0,0,0,.61-1.25,1.54,1.54,0,1,0-2.47,1.25l-.67.69a2.49,2.49,0,0,1-.89-1.94,2.75,2.75,0,0,1,.61-1.64V29.67H34.72V46.25l.64.42V48H27.93V46.67l.83-.41V41.14H26.6v5.11l.76.42V48H19.87V46.67l.76-.42V29.6Zm2.6-15.66H33.34a.88.88,0,0,1,.88.86v7.46a.87.87,0,0,1-.88.84H22.09a.83.83,0,0,1-.82-.84V14.8A.84.84,0,0,1,22.09,13.94Zm2.76,5.48A1.46,1.46,0,1,1,26.28,18a1.45,1.45,0,0,1-1.43,1.46ZM29.17,18a1.45,1.45,0,0,0,1.43,1.46h0A1.46,1.46,0,1,0,29.17,18Zm-3.59,0a.73.73,0,1,1-.73-.74.72.72,0,0,1,.52.21A.7.7,0,0,1,25.58,18Zm4.29,0a.74.74,0,1,0,1.47,0,.74.74,0,1,0-1.47,0Z"/></g></g></svg>
