<svg xmlns="http://www.w3.org/2000/svg" id="subjects" viewBox="0 0 340.2 340.2"><defs><style>.cls-1{fill:#231f20}.cls-3{fill:#5c58a6}.cls-5{fill:#f9ed3a}</style></defs><title>GrUSP</title><path d="M296 143a86 86 0 0 0-18-38L247 0l-23 79a280 280 0 0 0-46-4c-27 1-48 5-65 11H0l42 56a41 41 0 0 0-2 13c0 18 12 40 30 52 18 13 47 16 71 16 10 9 30 14 52 14 23 0 42-6 53-14a40 40 0 0 0 12-1c28-6 45-41 38-79ZM334 329h-2a1 1 0 0 0-1 1l-1 6 1 1 1-1v-2h1v2a1 1 0 0 0 1 1h1l1-1-1-2a3 3 0 0 0 1-3c0-2-1-2-2-2Zm-1 4v-2a1 1 0 0 1 1 1 1 1 0 0 1-1 1Z" class="cls-1"/><path d="M334 326a8 8 0 0 0-8 8c0 4 2 6 6 6a8 8 0 0 0 8-8c0-4-2-6-6-6Zm-2 12a4 4 0 0 1-4-4c0-4 2-6 6-6a4 4 0 0 1 4 4 6 6 0 0 1-6 6ZM41 251c-29 0-41 20-41 56 0 23 9 33 29 33 26 0 34-15 36-32l1-9c0-3-2-5-5-5H41c-5 0-7 2-7 6v3c-1 3 1 5 5 5h4v1c-1 7-4 10-11 10-5 0-8-4-8-14 0-16 3-32 14-32 4 0 8 4 8 10 0 5 1 5 6 5l10-2c5-1 6-2 6-9 0-14-6-26-27-26ZM186 318l-18 2c-22 0-33-3-39-10l-4-5c8-5 16-13 16-27 0-19-12-26-31-26H85a6 6 0 0 0-6 6l-10 75c0 3 1 6 5 6h12c4 0 6-3 7-6l3-21h5l10 12c7 9 18 16 50 16a194 194 0 0 0 22-1 7 7 0 0 0 7-7l1-8c0-3-1-6-5-6Zm-80-25h-8l3-20h7c6 0 11 3 11 9 0 8-6 11-13 11Z" class="cls-1"/><path d="M196 252h-9c-3 0-6 3-6 6l-4 30c-1 6-3 10-7 10s-6-4-5-10l4-29c1-4-1-7-5-7h-9c-3 0-6 3-6 7l-4 28c-2 18 4 28 23 28s27-10 29-28l4-28c1-4-1-7-5-7ZM236 272c5 0 9 3 9 9 0 2 2 2 5 1l12-2c4 0 5-3 5-6 0-14-9-23-29-23-24 0-35 17-35 31 0 27 36 21 36 31 0 3-2 7-10 7-6 0-8-4-8-7 0-4-2-4-6-3l-11 2c-5 0-5 4-5 6 0 12 8 22 27 22 28 0 37-13 37-28 0-27-35-23-35-33 0-4 2-7 8-7ZM340 278c0-19-12-26-31-26h-26a7 7 0 0 0-6 6l-10 75c0 4 2 6 5 6h12a7 7 0 0 0 7-6l3-19h7c22 0 39-12 39-36Zm-34 15h-10l3-20h8c7 0 11 3 11 9 0 8-6 11-12 11Z" class="cls-1"/><path d="M300 154c-4-18-12-34-24-44h-1a31 31 0 0 0-3-3 31 31 0 0 1-14 15c-1-8-9-19-15-25l-11-3c1 23-13 40-13 40-10-18-49-33-65-39l-17 5c8 14 6 29 6 29-8-5-20-5-32-4a100 100 0 0 0-3 93c13 5 30 7 50 7 22 0 43-9 57-25l6-6 4 7c10 15 24 24 37 24a31 31 0 0 0 6-1c24-5 38-36 32-70Zm-141 46a6 6 0 0 1-7-3 4 4 0 0 1 3-5 6 6 0 0 1 6 3 4 4 0 0 1-2 5Zm-3-51a11 11 0 0 1 2-6l20 4a11 11 0 1 1-22 2Zm22 68a6 6 0 0 1-7-3 4 4 0 0 1 3-5 6 6 0 0 1 6 3 4 4 0 0 1-2 5Zm4-21a6 6 0 0 1-7-4 4 4 0 0 1 3-5 6 6 0 0 1 7 3 4 4 0 0 1-3 6Zm62-3a3 3 0 0 1-2-5 5 5 0 0 1 5-2 3 3 0 0 1 2 4 5 5 0 0 1-5 3Zm8 14a5 5 0 0 1-5 3 3 3 0 0 1-2-4 5 5 0 0 1 5-3 3 3 0 0 1 2 4Zm0-50a9 9 0 0 1-8-11l15-3a9 9 0 0 1-7 14Zm15 37a5 5 0 0 1-5 2 3 3 0 0 1-2-4 5 5 0 0 1 5-2 3 3 0 0 1 2 4Z" style="fill:#8781bd" transform="translate(-10 -11)"/><path d="M206 196a87 87 0 0 1-45 25c9 5 22 8 37 8s29-3 38-9c-11-4-22-12-30-24ZM100 113a214 214 0 0 0-24 3c-13 12-19 24-19 36 0 17 10 36 25 47a60 60 0 0 0 16 8 100 100 0 0 1 2-94Z" class="cls-3"/><path d="M235 175a3 3 0 0 0 0-1l-5-1-9-1-9 1c-2 0-4 0-5 2 0 1 0 2 3 5l4 4 4 5 3 3c2 0 7-4 10-8 3-3 5-7 4-9Z" style="fill:#2c3689" transform="translate(-10 -11)"/><path d="M168 135a11 11 0 1 1-21-4l-27-5a33 33 0 1 0 63 13v-1ZM269 128l-20 4a9 9 0 1 1-16 3l3-1-14 3v1a25 25 0 1 0 47-10Z" class="cls-5"/><path d="m170 145-4-1a5 5 0 1 0 4 1Zm83 0h-3a4 4 0 1 0 3 0Z" style="fill:#fff" transform="translate(-10 -11)"/></svg>
